<svg width="30" height="25" viewBox="0 0 30 25" fill="none" xmlns="http://www.w3.org/2000/svg">
<path d="M3.32425 13.7571L6.23181 12.3029L7.19693 9.40836C7.60739 8.17926 8.44739 7.44531 9.44531 7.44531H14.5234C16.3568 7.44531 17.1281 8.22961 17.8743 8.98874L21.0901 12.2068L25.6463 13.7251C25.6494 13.7266 25.6532 13.7274 25.6562 13.7289C26.2903 13.9532 27.6094 14.4209 27.6094 15.8438V17.4062C27.6094 18.5911 26.6458 19.5547 25.4609 19.5547H24.6797C24.3562 19.5547 24.0938 19.2922 24.0938 18.9688C24.0938 17.9998 23.3049 17.2109 22.3359 17.2109C21.367 17.2109 20.5781 17.9998 20.5781 18.9688C20.5781 19.2922 20.3157 19.5547 19.9922 19.5547H10.6172C10.2937 19.5547 10.0312 19.2922 10.0312 18.9688C10.0312 17.9998 9.24237 17.2109 8.27344 17.2109C7.3045 17.2109 6.51562 17.9998 6.51562 18.9688C6.51562 19.2922 6.25317 19.5547 5.92969 19.5547H5.14844C3.96359 19.5547 3 18.5911 3 17.4062V14.2812C3 14.0592 3.12512 13.8563 3.32425 13.7571ZM8.30853 9.77914L7.52414 12.1328H11.5938V8.61719H9.44531C8.89294 8.61719 8.49545 9.21762 8.30853 9.77914ZM17.0381 9.81042C16.3575 9.11768 15.8654 8.61719 14.5234 8.61719H12.7656V12.1328H19.3594L17.0381 9.81042ZM4.17188 17.4062C4.17188 17.9449 4.6098 18.3828 5.14844 18.3828H5.4025C5.67487 17.0469 6.85895 16.0391 8.27344 16.0391C9.68793 16.0391 10.872 17.0469 11.1444 18.3828H19.465C19.7374 17.0469 20.9214 16.0391 22.3359 16.0391C23.7504 16.0391 24.9345 17.0469 25.2069 18.3828H25.4609C25.9996 18.3828 26.4375 17.9449 26.4375 17.4062V15.8438C26.4375 15.4585 26.2513 15.1838 25.2702 14.8351L20.6773 13.3047H6.84903L4.17188 14.6436V17.4062Z" fill="#D01818"/>
</svg>
