<svg width="39" height="28" viewBox="0 0 39 28" fill="none" xmlns="http://www.w3.org/2000/svg">
<g clip-path="url(#clip0_1805_6215)">
<mask id="mask0_1805_6215" style="mask-type:luminance" maskUnits="userSpaceOnUse" x="4" y="0" width="29" height="28">
<path d="M4.17773 0.000289917H32.0349V27.8574H4.17773V0.000289917Z" fill="white"/>
</mask>
<g mask="url(#mask0_1805_6215)">
<path d="M11.757 18.4603C11.757 19.7788 10.6881 20.8477 9.3697 20.8477C8.05122 20.8477 6.98242 19.7788 6.98242 18.4603C6.98242 17.1419 8.05122 16.073 9.3697 16.073C10.6881 16.073 11.757 17.1419 11.757 18.4603Z" stroke="#D01818" stroke-miterlimit="10" stroke-linecap="round" stroke-linejoin="round"/>
<path d="M27.7219 18.4603C27.7219 19.7788 26.653 20.8477 25.3345 20.8477C24.0161 20.8477 22.9473 19.7788 22.9473 18.4603C22.9473 17.1419 24.0161 16.073 25.3345 16.073C26.653 16.073 27.7219 17.1419 27.7219 18.4603Z" stroke="#D01818" stroke-miterlimit="10" stroke-linecap="round" stroke-linejoin="round"/>
<path d="M19.8382 18.459H22.9468C22.9468 17.1407 24.0153 16.0721 25.3342 16.0721C26.6525 16.0721 27.7211 17.1407 27.7211 18.459H30.787L31.4916 17.2266V16.1955C31.4916 15.9431 31.4617 15.6923 31.4034 15.4486C31.2005 14.5693 30.5895 13.7717 29.874 13.2472C29.4257 12.9174 28.9116 12.6765 28.3582 12.5442L25.0344 11.7472L22.0904 8.74653C21.0011 7.63714 19.512 7.01193 17.957 7.01193H13.8219H7.36413L8.01149 7.81636C8.24 8.10021 8.20306 8.51393 7.92791 8.75284L5.13339 11.1797V14.2912L4.72266 15.0655V17.2266L5.54471 18.459H6.98436C6.98436 17.1407 8.05349 16.0721 9.37186 16.0721C10.6902 16.0721 11.7593 17.1407 11.7593 18.459H15.0507" stroke="#D01818" stroke-miterlimit="10" stroke-linecap="round" stroke-linejoin="round"/>
<path d="M31.3978 15.4277H29.1562C28.9396 15.4277 28.7432 15.3396 28.6012 15.1976C28.4586 15.0555 28.3711 14.8597 28.3711 14.6426C28.3711 14.3754 28.5065 14.1262 28.7312 13.9821L29.8738 13.2476C30.5912 13.7737 31.1836 14.5527 31.3978 15.4277Z" stroke="#D01818" stroke-miterlimit="10" stroke-linecap="round" stroke-linejoin="round"/>
<path d="M21.9506 12.3919C19.7401 12.2169 10.9492 11.5001 8.81678 11.3261C8.63767 11.3115 8.56166 11.091 8.69349 10.9688L10.6299 9.17486C10.7493 9.06425 10.906 9.00282 11.0687 9.00282H17.5398C18.7521 9.00282 19.9057 9.52514 20.7055 10.4362L22.1219 12.0498C22.2442 12.189 22.1354 12.4066 21.9506 12.3919Z" stroke="#D01818" stroke-miterlimit="10" stroke-linecap="round" stroke-linejoin="round"/>
<path d="M15.9492 9.0041V11.9082" stroke="#D01818" stroke-miterlimit="10" stroke-linecap="round" stroke-linejoin="round"/>
<path d="M15.9492 14.4473H17.1661" stroke="#D01818" stroke-miterlimit="10" stroke-linecap="round" stroke-linejoin="round"/>
<path d="M8.63672 13.6895H9.85362" stroke="#D01818" stroke-miterlimit="10" stroke-linecap="round" stroke-linejoin="round"/>
</g>
</g>
<defs>
<clipPath id="clip0_1805_6215">
<rect width="39" height="27.8571" fill="white"/>
</clipPath>
</defs>
</svg>
