<svg width="20" height="20" viewBox="0 0 20 20" fill="none" xmlns="http://www.w3.org/2000/svg">
<g clip-path="url(#clip0_1805_6245)">
<path d="M19.9548 12.1762L18.2777 9.2409C18.2016 9.10766 18.0598 9.02539 17.9062 9.02539H2.0939C1.94027 9.02539 1.79847 9.10766 1.72236 9.2409L0.0452678 12.1762C-0.0764844 12.5317 0.0473618 12.7447 0.416806 12.8153H4.65121V14.5366C4.67595 14.7004 4.76997 14.768 4.93335 14.7391L6.08813 14.3509L7.24296 14.7391C7.36946 14.7815 7.5251 14.6811 7.5251 14.5366V12.8153H7.95399C8.09395 12.8153 8.2251 12.7469 8.3051 12.6322L9.5722 10.8144V18.9526H2.52702V14.1829C2.52702 13.9469 2.33548 13.7555 2.0992 13.7555C1.86292 13.7555 1.67138 13.9469 1.67138 14.1829V19.38C1.67138 19.6159 1.86292 19.8073 2.0992 19.8073H17.9009C18.1372 19.8073 18.3287 19.6159 18.3287 19.38V14.0974C18.3287 13.8614 18.1372 13.67 17.9009 13.67C17.6646 13.67 17.4731 13.8614 17.4731 14.0974V18.9526H10.4278V10.8144L11.6949 12.6322C11.7749 12.747 11.9061 12.8153 12.046 12.8153H12.7377V14.5366C12.7377 14.6775 12.8888 14.7792 13.0142 14.7409L14.1746 14.3862L15.3351 14.7409C15.496 14.7656 15.5882 14.6975 15.6116 14.5366V12.8153H19.5832C19.9527 12.7447 20.0765 12.5316 19.9548 12.1762ZM7.73057 11.9606H1.1536L2.34232 9.88009H9.18079L7.73057 11.9606ZM12.2695 11.9606L10.8192 9.88009H17.6577L18.8464 11.9606H12.2695Z" fill="#D01818"/>
<path d="M5.75731 4.46351C6.65475 5.2389 7.01748 6.15228 7.0956 7.83347C7.10624 8.06249 7.29543 8.24099 7.52261 8.24099C7.52928 8.24099 7.53603 8.24082 7.54278 8.24052C7.77881 8.22958 7.96124 8.02954 7.9503 7.79381C7.86206 5.89522 7.38885 4.74309 6.31706 3.81702C6.13842 3.66266 5.86817 3.68215 5.71359 3.86065C5.55906 4.03928 5.57864 4.30911 5.75731 4.46351Z" fill="#D01818"/>
<path d="M12.4568 8.24045C12.4636 8.24075 12.4703 8.24092 12.477 8.24092C12.7041 8.24092 12.8934 8.06237 12.904 7.8334C12.9821 6.15216 13.3449 5.23878 14.2423 4.46344C14.421 4.30904 14.4406 4.03917 14.286 3.86067C14.1314 3.68212 13.8612 3.66267 13.6825 3.81703C12.6107 4.7431 12.1375 5.89524 12.0493 7.79383C12.0384 8.02951 12.2208 8.22951 12.4568 8.24045Z" fill="#D01818"/>
<path d="M9.53516 5.78087V7.81433C9.53516 8.05031 9.72669 8.24168 9.96298 8.24168C10.1993 8.24168 10.3908 8.05031 10.3908 7.81433V5.78087C10.3908 5.54488 10.1993 5.35352 9.96298 5.35352C9.72674 5.35352 9.53516 5.54484 9.53516 5.78087Z" fill="#D01818"/>
<path d="M8.73714 2.9247L8.51338 4.19726C8.52227 4.40025 8.62509 4.47594 8.8218 4.42431L9.99936 3.82034L11.177 4.42435C11.3168 4.49594 11.5172 4.37846 11.4854 4.1973L11.2616 2.92474L12.2104 2.02252C12.3245 1.85141 12.2853 1.72931 12.093 1.65624L10.7777 1.46974L10.1903 0.308714C10.063 0.152304 9.93573 0.152304 9.80842 0.308714L9.22107 1.46965L7.90573 1.65615C7.71334 1.72923 7.67424 1.85136 7.78834 2.02243L8.73714 2.9247Z" fill="#D01818"/>
<path d="M15.9968 6.65122L15.0481 5.74899C14.934 5.57788 14.9731 5.45579 15.1655 5.38271L16.4808 5.19622L17.0682 4.03528C17.1955 3.87887 17.3228 3.87887 17.4501 4.03528L18.0374 5.19622L19.3528 5.38271C19.5451 5.45579 19.5842 5.57793 19.4701 5.74899L18.5214 6.65122L18.7451 7.92378C18.777 8.10494 18.5766 8.22241 18.4367 8.15083L17.2591 7.54682L16.0815 8.15083C15.8848 8.20241 15.782 8.12673 15.7731 7.92378L15.9968 6.65122Z" fill="#D01818"/>
<path d="M1.26251 6.18056L1.03875 7.45316C1.00691 7.63432 1.20729 7.7518 1.34717 7.68021L2.52481 7.0762L3.70242 7.68021C3.89913 7.7318 4.00195 7.65611 4.01084 7.45316L3.78708 6.18056L4.73584 5.27833C4.84994 5.10722 4.81079 4.98513 4.6184 4.91205L3.30306 4.7256L2.71571 3.56457C2.5884 3.40816 2.46114 3.40816 2.33383 3.56457L1.74648 4.72556L0.431183 4.91201C0.238747 4.98509 0.199602 5.10718 0.313747 5.27829L1.26251 6.18056Z" fill="#D01818"/>
</g>
<defs>
<clipPath id="clip0_1805_6245">
<rect width="20" height="20" fill="white"/>
</clipPath>
</defs>
</svg>
