<svg width="103" height="58" viewBox="0 0 103 58" fill="none" xmlns="http://www.w3.org/2000/svg">
<g clip-path="url(#clip0_4002_17546)">
<path d="M33.2254 34.1837C33.0858 34.3245 32.983 34.4974 32.926 34.6872C32.869 34.877 32.8596 35.078 32.8986 35.2723C32.9376 35.4666 33.0238 35.6484 33.1496 35.8016C33.2754 35.9547 33.4369 36.0746 33.62 36.1506C33.803 36.2266 34.002 36.2564 34.1993 36.2374C34.3965 36.2184 34.5861 36.1511 34.7513 36.0416C34.9165 35.932 35.0521 35.7835 35.1464 35.6091C35.2406 35.4347 35.2905 35.2399 35.2916 35.0417C35.293 34.8017 35.2229 34.5667 35.0903 34.3667C34.9576 34.1667 34.7683 34.0107 34.5467 33.9187C34.325 33.8266 34.081 33.8027 33.8457 33.8499C33.6103 33.8971 33.3944 34.0133 33.2254 34.1837ZM69.0283 34.5825C68.9436 34.3821 68.8063 34.2082 68.631 34.0794C68.4556 33.9505 68.2488 33.8713 68.0322 33.8503C67.8156 33.8293 67.5973 33.8671 67.4005 33.9598C67.2036 34.0525 67.0354 34.1967 66.9137 34.3771C66.8055 34.5414 66.739 34.7296 66.72 34.9255C66.7011 35.1213 66.7302 35.3188 66.805 35.5008C66.8978 35.7188 67.0527 35.9047 67.2504 36.0353C67.448 36.1659 67.6797 36.2356 67.9166 36.2356C68.1536 36.2356 68.3853 36.1659 68.5829 36.0353C68.7806 35.9047 68.9355 35.7188 69.0283 35.5008C69.1492 35.2066 69.1492 34.8767 69.0283 34.5825Z" fill="#24272C"/>
<path d="M75.5654 25.097L64.6904 24.2029C54.4075 16.8562 58.6488 18.1612 36.9954 18.1612C33.9867 18.1612 32.9475 20.312 29.7454 24.2995L25.9754 24.9279C24.8657 25.128 23.8609 25.7098 23.1349 26.5726C22.4089 27.4354 22.0075 28.5249 22 29.6525V32.625C22 33.5864 22.3819 34.5084 23.0617 35.1882C23.7416 35.868 24.6636 36.25 25.625 36.25H29.4192C29.6974 37.2739 30.3049 38.1778 31.1478 38.8222C31.9907 39.4666 33.0223 39.8157 34.0833 39.8157C35.1444 39.8157 36.1759 39.4666 37.0189 38.8222C37.8618 38.1778 38.4692 37.2739 38.7475 36.25H63.2525C63.5308 37.2739 64.1382 38.1778 64.9811 38.8222C65.8241 39.4666 66.8556 39.8157 67.9167 39.8157C68.9777 39.8157 70.0093 39.4666 70.8522 38.8222C71.6951 38.1778 72.3026 37.2739 72.5808 36.25H76.375C77.3364 36.25 78.2584 35.868 78.9383 35.1882C79.6181 34.5084 80 33.5864 80 32.625V29.9183C80.0011 28.7047 79.5456 27.5351 78.724 26.6418C77.9024 25.7486 76.7749 25.1972 75.5654 25.097ZM60.5217 24.1666H52.2083V20.5416C56.0388 20.5416 57.0417 21.6775 60.5217 24.1666ZM46.1667 24.1666V20.5416H49.7917V24.1666H46.1667ZM40.125 24.1666V20.5416H43.75V24.1666H40.125ZM37.7083 20.5416V24.1666H32.9717C35.6663 20.8075 35.4729 20.5416 37.7083 20.5416ZM34.0833 37.4583C33.6054 37.4583 33.1381 37.3166 32.7407 37.051C32.3433 36.7855 32.0335 36.408 31.8506 35.9664C31.6677 35.5249 31.6199 35.0389 31.7131 34.5702C31.8063 34.1014 32.0365 33.6708 32.3745 33.3328C32.7125 32.9948 33.1431 32.7646 33.6119 32.6714C34.0807 32.5781 34.5666 32.626 35.0082 32.8089C35.4497 32.9918 35.8272 33.3016 36.0927 33.699C36.3583 34.0964 36.5 34.5637 36.5 35.0416C36.5 35.6826 36.2454 36.2973 35.7922 36.7505C35.339 37.2037 34.7243 37.4583 34.0833 37.4583ZM67.9167 37.4583C67.4387 37.4583 66.9715 37.3166 66.574 37.051C66.1766 36.7855 65.8669 36.408 65.684 35.9664C65.501 35.5249 65.4532 35.0389 65.5464 34.5702C65.6397 34.1014 65.8698 33.6708 66.2078 33.3328C66.5458 32.9948 66.9764 32.7646 67.4452 32.6714C67.914 32.5781 68.3999 32.626 68.8415 32.8089C69.2831 32.9918 69.6605 33.3016 69.9261 33.699C70.1916 34.0964 70.3333 34.5637 70.3333 35.0416C70.3333 35.6826 70.0787 36.2973 69.6255 36.7505C69.1723 37.2037 68.5576 37.4583 67.9167 37.4583ZM76.375 33.8333H72.5808C72.3026 32.8094 71.6951 31.9055 70.8522 31.2611C70.0093 30.6166 68.9777 30.2675 67.9167 30.2675C66.8556 30.2675 65.8241 30.6166 64.9811 31.2611C64.1382 31.9055 63.5308 32.8094 63.2525 33.8333H38.7475C38.4692 32.8094 37.8618 31.9055 37.0189 31.2611C36.1759 30.6166 35.1444 30.2675 34.0833 30.2675C33.0223 30.2675 31.9907 30.6166 31.1478 31.2611C30.3049 31.9055 29.6974 32.8094 29.4192 33.8333H25.625C25.3045 33.8333 24.9972 33.706 24.7706 33.4794C24.544 33.2528 24.4167 32.9454 24.4167 32.625C24.4167 25.2904 21.7946 26.5833 64.2917 26.5833L75.4204 27.5137C75.852 27.5617 76.2626 27.725 76.6092 27.9865C76.9558 28.2481 77.2255 28.5981 77.39 29H76.375C76.0545 29 75.7472 29.1273 75.5206 29.3539C75.294 29.5805 75.1667 29.8878 75.1667 30.2083C75.1667 30.5288 75.294 30.8361 75.5206 31.0627C75.7472 31.2893 76.0545 31.4166 76.375 31.4166H77.5833V32.625C77.5833 32.9454 77.456 33.2528 77.2294 33.4794C77.0028 33.706 76.6955 33.8333 76.375 33.8333Z" fill="#24272C"/>
</g>
<defs>
<clipPath id="clip0_4002_17546">
<rect width="58" height="58" fill="white" transform="translate(22)"/>
</clipPath>
</defs>
</svg>
