<svg width="103" height="58" viewBox="0 0 103 58" fill="none" xmlns="http://www.w3.org/2000/svg">
<g clip-path="url(#clip0_4002_17522)">
<path d="M80 31.1267C79.7178 29.9534 79.1965 28.851 78.4688 27.8884C77.7411 26.9257 76.8227 26.1236 75.7708 25.5321C73.9704 24.5292 73.6804 24.6379 64.8958 23.0429C58.9992 17.1462 57.3075 14.5 52.8125 14.5H25.625C25.3045 14.5 24.9972 14.6273 24.7706 14.8539C24.544 15.0805 24.4167 15.3879 24.4167 15.7083C24.4167 16.0288 24.544 16.3361 24.7706 16.5628C24.9972 16.7894 25.3045 16.9167 25.625 16.9167H25.9633C22.435 22.9583 22 25.6288 22 32.625C22 34.2274 22.6365 35.7641 23.7696 36.8971C24.9026 38.0301 26.4393 38.6667 28.0417 38.6667H30.5792C30.8565 40.0324 31.5975 41.2603 32.6765 42.1423C33.7556 43.0243 35.1064 43.5061 36.5 43.5061C37.8936 43.5061 39.2444 43.0243 40.3235 42.1423C41.4025 41.2603 42.1435 40.0324 42.4208 38.6667H59.5792C59.8565 40.0324 60.5975 41.2603 61.6765 42.1423C62.7556 43.0243 64.1064 43.5061 65.5 43.5061C66.8936 43.5061 68.2444 43.0243 69.3235 42.1423C70.4025 41.2603 71.1435 40.0324 71.4208 38.6667H76.375C77.3364 38.6667 78.2584 38.2847 78.9383 37.6049C79.6181 36.9251 80 36.0031 80 35.0417C80.0841 33.738 80.0841 32.4303 80 31.1267ZM74.8283 27.7917C75.765 28.3816 76.5216 29.2176 77.0154 30.2083H75.1667C74.8462 30.2532 74.521 30.1689 74.2627 29.974C74.0044 29.7792 73.834 29.4896 73.7892 29.1692C73.7443 28.8487 73.8286 28.5235 74.0235 28.2652C74.2183 28.0069 74.5079 27.8365 74.8283 27.7917ZM61.3796 22.9583H50.6979L48.9821 16.9167C56.2079 16.9167 54.8908 16.4696 61.3796 22.9583ZM34.7238 16.9167H37.3096L35.6783 22.6563C32.875 18.85 32.875 19.6958 34.7238 16.9167ZM39.8229 16.9167H46.4688L48.1846 22.9583H38.1071L39.8229 16.9167ZM24.7308 26.4142H25.5404C25.8833 26.4142 26.2122 26.5504 26.4546 26.7929C26.6971 27.0353 26.8333 27.3642 26.8333 27.7071C26.8333 28.05 26.6971 28.3788 26.4546 28.6213C26.2122 28.8638 25.8833 29 25.5404 29H24.4167C24.4668 28.1323 24.5717 27.2686 24.7308 26.4142ZM36.5 41.0833C35.783 41.0833 35.0822 40.8707 34.4861 40.4724C33.8899 40.0741 33.4253 39.5079 33.1509 38.8456C32.8766 38.1832 32.8048 37.4543 32.9447 36.7511C33.0845 36.0479 33.4298 35.402 33.9367 34.8951C34.4437 34.3881 35.0896 34.0429 35.7928 33.903C36.496 33.7631 37.2248 33.8349 37.8872 34.1093C38.5496 34.3836 39.1158 34.8483 39.5141 35.4444C39.9124 36.0405 40.125 36.7414 40.125 37.4583C40.125 38.4197 39.7431 39.3418 39.0633 40.0216C38.3834 40.7014 37.4614 41.0833 36.5 41.0833ZM65.5 41.0833C64.783 41.0833 64.0822 40.8707 63.4861 40.4724C62.8899 40.0741 62.4253 39.5079 62.1509 38.8456C61.8766 38.1832 61.8048 37.4543 61.9447 36.7511C62.0845 36.0479 62.4298 35.402 62.9367 34.8951C63.4437 34.3881 64.0896 34.0429 64.7928 33.903C65.496 33.7631 66.2248 33.8349 66.8872 34.1093C67.5496 34.3836 68.1158 34.8483 68.5141 35.4444C68.9124 36.0405 69.125 36.7414 69.125 37.4583C69.125 38.4197 68.7431 39.3418 68.0633 40.0216C67.3834 40.7014 66.4614 41.0833 65.5 41.0833ZM76.375 36.25H71.4208C71.1435 34.8842 70.4025 33.6563 69.3235 32.7744C68.2444 31.8924 66.8936 31.4106 65.5 31.4106C64.1064 31.4106 62.7556 31.8924 61.6765 32.7744C60.5975 33.6563 59.8565 34.8842 59.5792 36.25H42.4208C42.1435 34.8842 41.4025 33.6563 40.3235 32.7744C39.2444 31.8924 37.8936 31.4106 36.5 31.4106C35.1064 31.4106 33.7556 31.8924 32.6765 32.7744C31.5975 33.6563 30.8565 34.8842 30.5792 36.25H28.0417C27.0803 36.25 26.1582 35.8681 25.4784 35.1883C24.7986 34.5084 24.4167 33.5864 24.4167 32.625V31.4167H25.5404C30.3738 31.4167 30.6033 23.9975 25.3108 23.9975C25.9606 21.9291 26.8787 19.9548 28.0417 18.125C28.8392 16.7233 30.2771 16.9167 31.8238 16.9167C31.3011 17.5467 31.0071 18.335 30.9896 19.1534C30.972 19.9717 31.232 20.7719 31.7271 21.4237C35.05 25.8583 34.2163 25.375 36.5 25.375C69.2096 25.375 61.585 24.9037 72.2667 26.8492C71.8696 27.3878 71.6294 28.0258 71.5727 28.6925C71.5159 29.3592 71.6448 30.0286 71.945 30.6266C72.2453 31.2246 72.7052 31.7278 73.2738 32.0805C73.8424 32.4332 74.4975 32.6217 75.1667 32.625H77.5833V35.0417C77.5833 35.3621 77.456 35.6695 77.2294 35.8961C77.0028 36.1227 76.6955 36.25 76.375 36.25Z" fill="#24272C"/>
<path d="M64.6414 36.6003C64.5288 36.7129 64.4394 36.8467 64.3784 36.9939C64.3175 37.1411 64.2861 37.2988 64.2861 37.4582C64.2861 37.6175 64.3175 37.7753 64.3784 37.9225C64.4394 38.0697 64.5288 38.2034 64.6414 38.3161C64.7541 38.4287 64.8878 38.5181 65.0351 38.5791C65.1823 38.6401 65.34 38.6715 65.4994 38.6715C65.6587 38.6715 65.8165 38.6401 65.9637 38.5791C66.1109 38.5181 66.2446 38.4287 66.3573 38.3161C66.5848 38.0886 66.7126 37.78 66.7126 37.4582C66.7126 37.1364 66.5848 36.8278 66.3573 36.6003C66.1297 36.3727 65.8211 36.2449 65.4994 36.2449C65.1776 36.2449 64.869 36.3727 64.6414 36.6003ZM35.6414 36.6003C35.4734 36.7696 35.3593 36.985 35.3135 37.2191C35.2677 37.4532 35.2922 37.6956 35.3839 37.9159C35.4757 38.1361 35.6306 38.3242 35.8291 38.4565C36.0276 38.5889 36.2608 38.6595 36.4993 38.6595C36.7379 38.6595 36.9711 38.5889 37.1696 38.4565C37.3681 38.3242 37.523 38.1361 37.6148 37.9159C37.7065 37.6956 37.731 37.4532 37.6852 37.2191C37.6394 36.985 37.5253 36.7696 37.3573 36.6003C37.2449 36.487 37.1113 36.3971 36.964 36.3358C36.8168 36.2744 36.6589 36.2428 36.4993 36.2428C36.3398 36.2428 36.1819 36.2744 36.0347 36.3358C35.8874 36.3971 35.7538 36.487 35.6414 36.6003ZM54.6244 27.7915H52.2077C51.8872 27.7915 51.5799 27.9188 51.3533 28.1454C51.1267 28.372 50.9994 28.6794 50.9994 28.9998C50.9994 29.3203 51.1267 29.6277 51.3533 29.8543C51.5799 30.0809 51.8872 30.2082 52.2077 30.2082H54.6244C54.9448 30.2082 55.2522 30.0809 55.4788 29.8543C55.7054 29.6277 55.8327 29.3203 55.8327 28.9998C55.8327 28.6794 55.7054 28.372 55.4788 28.1454C55.2522 27.9188 54.9448 27.7915 54.6244 27.7915ZM41.3327 27.7915H38.916C38.5955 27.7915 38.2882 27.9188 38.0616 28.1454C37.835 28.372 37.7077 28.6794 37.7077 28.9998C37.7077 29.3203 37.835 29.6277 38.0616 29.8543C38.2882 30.0809 38.5955 30.2082 38.916 30.2082H41.3327C41.6532 30.2082 41.9605 30.0809 42.1871 29.8543C42.4137 29.6277 42.541 29.3203 42.541 28.9998C42.541 28.6794 42.4137 28.372 42.1871 28.1454C41.9605 27.9188 41.6532 27.7915 41.3327 27.7915Z" fill="#24272C"/>
</g>
<defs>
<clipPath id="clip0_4002_17522">
<rect width="58" height="58" fill="white" transform="translate(22)"/>
</clipPath>
</defs>
</svg>
