<svg width="103" height="58" viewBox="0 0 103 58" fill="none" xmlns="http://www.w3.org/2000/svg">
<path d="M66.2489 35.1387C66.0461 35.222 65.8698 35.3589 65.7389 35.5347C65.608 35.7105 65.5274 35.9187 65.5057 36.1368C65.484 36.3549 65.5221 36.5749 65.6158 36.773C65.7095 36.9712 65.8554 37.1401 66.0378 37.2617C66.2202 37.3833 66.4323 37.453 66.6512 37.4633C66.8702 37.4737 67.0879 37.4242 67.2809 37.3203C67.4739 37.2164 67.635 37.0619 67.747 36.8734C67.8589 36.6849 67.9175 36.4695 67.9164 36.2503C67.9154 36.0524 67.8658 35.8578 67.772 35.6835C67.6782 35.5093 67.543 35.3607 67.3783 35.251C67.2137 35.1412 67.0246 35.0735 66.8276 35.0539C66.6307 35.0344 66.432 35.0635 66.2489 35.1387ZM34.4335 37.1082C34.5461 37.2209 34.6799 37.3103 34.8271 37.3712C34.9743 37.4322 35.1321 37.4636 35.2914 37.4636C35.4507 37.4636 35.6085 37.4322 35.7557 37.3712C35.9029 37.3103 36.0367 37.2209 36.1493 37.1082C36.262 36.9956 36.3514 36.8618 36.4123 36.7146C36.4733 36.5674 36.5047 36.4097 36.5047 36.2503C36.5047 36.091 36.4733 35.9332 36.4123 35.786C36.3514 35.6388 36.262 35.5051 36.1493 35.3924C35.9218 35.1649 35.6132 35.037 35.2914 35.037C34.9696 35.037 34.661 35.1649 34.4335 35.3924C34.206 35.6199 34.0781 35.9285 34.0781 36.2503C34.0781 36.5721 34.206 36.8807 34.4335 37.1082ZM55.8331 27.792H53.4164C53.0959 27.792 52.7886 27.9193 52.562 28.1459C52.3354 28.3725 52.2081 28.6799 52.2081 29.0003C52.2081 29.3208 52.3354 29.6281 52.562 29.8547C52.7886 30.0814 53.0959 30.2087 53.4164 30.2087H55.8331C56.1535 30.2087 56.4609 30.0814 56.6875 29.8547C56.9141 29.6281 57.0414 29.3208 57.0414 29.0003C57.0414 28.6799 56.9141 28.3725 56.6875 28.1459C56.4609 27.9193 56.1535 27.792 55.8331 27.792Z" fill="#24272C"/>
<path d="M77.0268 25.0367L66.0309 23.0309L59.1797 17.1584C57.0409 15.2855 58.3822 15.7084 27.3643 15.7084C26.6028 15.7073 25.8604 15.946 25.2422 16.3906C24.6241 16.8352 24.1617 17.4632 23.9205 18.1855C21.8301 24.4688 22.0839 29.1813 22.1564 33.6038C22.125 34.0988 22.1955 34.595 22.3635 35.0617C22.5316 35.5283 22.7936 35.9555 23.1334 36.3168C23.4732 36.6781 23.8835 36.9659 24.339 37.1622C24.7945 37.3586 25.2854 37.4594 25.7814 37.4584H29.4064C29.6837 38.8242 30.4247 40.0521 31.5037 40.934C32.5828 41.816 33.9336 42.2978 35.3272 42.2978C36.7208 42.2978 38.0716 41.816 39.1507 40.934C40.2297 40.0521 40.9707 38.8242 41.248 37.4584H60.7868C61.0641 38.8242 61.8051 40.0521 62.8841 40.934C63.9632 41.816 65.314 42.2978 66.7076 42.2978C68.1013 42.2978 69.452 41.816 70.5311 40.934C71.6101 40.0521 72.3511 38.8242 72.6284 37.4584H76.3743C77.3357 37.4584 78.2577 37.0765 78.9375 36.3967C79.6174 35.7169 79.9993 34.7948 79.9993 33.8334V28.6013C79.999 27.7533 79.7014 26.9322 79.1583 26.2809C78.6152 25.6297 77.861 25.1894 77.0268 25.0367ZM77.5826 29.9909C76.9619 29.7819 76.4095 29.4086 75.984 28.9107C75.5585 28.4129 75.2758 27.8091 75.1659 27.1634C77.8122 27.6347 77.5826 27.6588 77.5826 29.9909ZM62.2368 22.9584H52.2076V18.1251C57.488 18.1251 55.8326 17.4847 62.2368 22.9584ZM49.7909 22.9584H43.7493V18.1251H49.7909V22.9584ZM41.3326 18.1251V22.9584H34.3001L35.1097 18.1251H41.3326ZM24.7905 25.3751H26.8326V26.5834C26.8326 26.9039 26.7053 27.2112 26.4787 27.4378C26.2521 27.6644 25.9448 27.7917 25.6243 27.7917H24.573C24.6093 26.9822 24.6939 26.1726 24.7905 25.3751ZM35.291 39.8751C34.574 39.8751 33.8731 39.6625 33.277 39.2642C32.6809 38.8658 32.2163 38.2997 31.9419 37.6373C31.6675 36.9749 31.5957 36.2461 31.7356 35.5429C31.8755 34.8397 32.2207 34.1938 32.7277 33.6868C33.2347 33.1799 33.8806 32.8346 34.5837 32.6947C35.2869 32.5549 36.0158 32.6266 36.6782 32.901C37.3406 33.1754 37.9067 33.64 38.305 34.2361C38.7033 34.8323 38.916 35.5331 38.916 36.2501C38.916 37.2115 38.534 38.1335 37.8542 38.8133C37.1744 39.4932 36.2524 39.8751 35.291 39.8751ZM66.7076 39.8751C65.9907 39.8751 65.2898 39.6625 64.6937 39.2642C64.0975 38.8658 63.6329 38.2997 63.3586 37.6373C63.0842 36.9749 63.0124 36.2461 63.1523 35.5429C63.2921 34.8397 63.6374 34.1938 64.1444 33.6868C64.6513 33.1799 65.2972 32.8346 66.0004 32.6947C66.7036 32.5549 67.4325 32.6266 68.0948 32.901C68.7572 33.1754 69.3234 33.64 69.7217 34.2361C70.12 34.8323 70.3326 35.5331 70.3326 36.2501C70.3326 37.2115 69.9507 38.1335 69.2709 38.8133C68.5911 39.4932 67.669 39.8751 66.7076 39.8751ZM76.3743 35.0417H72.6284C72.3511 33.676 71.6101 32.4481 70.5311 31.5661C69.452 30.6842 68.1013 30.2024 66.7076 30.2024C65.314 30.2024 63.9632 30.6842 62.8841 31.5661C61.8051 32.4481 61.0641 33.676 60.7868 35.0417H41.2118C40.9345 33.676 40.1935 32.4481 39.1144 31.5661C38.0354 30.6842 36.6846 30.2024 35.291 30.2024C33.8973 30.2024 32.5465 30.6842 31.4675 31.5661C30.3884 32.4481 29.6474 33.676 29.3701 35.0417C23.8964 35.0417 24.6093 35.7667 24.5368 30.2084H25.6243C26.5857 30.2084 27.5077 29.8265 28.1875 29.1467C28.8674 28.4669 29.2493 27.5448 29.2493 26.5834V24.1667C29.2493 23.8463 29.122 23.5389 28.8954 23.3123C28.6688 23.0857 28.3614 22.9584 28.041 22.9584H25.1893C25.4476 21.6011 25.7906 20.2612 26.2164 18.9467C26.591 17.8472 27.2676 18.1251 32.6568 18.1251C31.9318 22.4388 31.4485 23.3813 32.4514 24.5172C33.4543 25.653 32.8743 25.3751 50.9993 25.3751C68.2664 25.3751 63.4814 25.0247 72.7493 26.7163C72.7792 28.0862 73.2739 29.4052 74.1521 30.4569C75.0304 31.5086 76.24 32.2305 77.5826 32.5042V33.8334C77.5826 34.1539 77.4553 34.4612 77.2287 34.6878C77.0021 34.9144 76.6948 35.0417 76.3743 35.0417Z" fill="#24272C"/>
</svg>
