<svg width="103" height="58" viewBox="0 0 103 58" fill="none" xmlns="http://www.w3.org/2000/svg">
<g clip-path="url(#clip0_4002_17534)">
<path d="M67.3724 35.2469C67.1989 35.1298 66.9979 35.0598 66.7891 35.0438C66.5804 35.0277 66.3711 35.0662 66.1817 35.1554C65.9923 35.2446 65.8293 35.3815 65.7087 35.5526C65.5881 35.7238 65.5141 35.9233 65.4938 36.1317C65.4736 36.3401 65.5078 36.5501 65.5932 36.7413C65.6786 36.9325 65.8122 37.0982 65.9809 37.2222C66.1496 37.3461 66.3476 37.4242 66.5555 37.4486C66.7635 37.473 66.9742 37.443 67.167 37.3615C67.3674 37.2768 67.5413 37.1395 67.6701 36.9642C67.799 36.7888 67.8782 36.5819 67.8992 36.3654C67.9202 36.1488 67.8824 35.9305 67.7897 35.7337C67.697 35.5368 67.5528 35.3686 67.3724 35.2469ZM36.1491 35.3919C35.9797 35.2239 35.7644 35.1098 35.5303 35.064C35.2961 35.0182 35.0537 35.0427 34.8335 35.1344C34.6133 35.2262 34.4251 35.3811 34.2928 35.5796C34.1605 35.778 34.0898 36.0113 34.0898 36.2498C34.0898 36.4884 34.1605 36.7216 34.2928 36.9201C34.4251 37.1186 34.6133 37.2735 34.8335 37.3652C35.0537 37.457 35.2961 37.4815 35.5303 37.4357C35.7644 37.3899 35.9797 37.2758 36.1491 37.1078C36.2623 36.9954 36.3522 36.8618 36.4136 36.7145C36.4749 36.5673 36.5065 36.4094 36.5065 36.2498C36.5065 36.0903 36.4749 35.9324 36.4136 35.7851C36.3522 35.6379 36.2623 35.5043 36.1491 35.3919ZM57.0412 27.7915H54.6245C54.304 27.7915 53.9967 27.9188 53.7701 28.1454C53.5435 28.372 53.4162 28.6794 53.4162 28.9998C53.4162 29.3203 53.5435 29.6277 53.7701 29.8543C53.9967 30.0809 54.304 30.2082 54.6245 30.2082H57.0412C57.3616 30.2082 57.669 30.0809 57.8956 29.8543C58.1222 29.6277 58.2495 29.3203 58.2495 28.9998C58.2495 28.6794 58.1222 28.372 57.8956 28.1454C57.669 27.9188 57.3616 27.7915 57.0412 27.7915Z" fill="#24272C"/>
<path d="M77.0275 25.0366L66.0317 23.0308L59.1804 17.1583C56.9208 15.2129 55.6521 15.7083 43.0733 15.7083C42.314 15.7097 41.5742 15.9496 40.9585 16.394C40.3427 16.8385 39.8821 17.4651 39.6417 18.1854L38.0467 22.9583H23.2083C22.8879 22.9583 22.5805 23.0856 22.3539 23.3122C22.1273 23.5388 22 23.8461 22 24.1666V33.8333C22 34.7947 22.3819 35.7167 23.0617 36.3965C23.7416 37.0764 24.6636 37.4583 25.625 37.4583H29.3708C29.6482 38.824 30.3891 40.0519 31.4682 40.9339C32.5472 41.8159 33.898 42.2977 35.2917 42.2977C36.6853 42.2977 38.0361 41.8159 39.1151 40.9339C40.1942 40.0519 40.9352 38.824 41.2125 37.4583H60.7875C61.0648 38.824 61.8058 40.0519 62.8849 40.9339C63.9639 41.8159 65.3147 42.2977 66.7083 42.2977C68.102 42.2977 69.4528 41.8159 70.5318 40.9339C71.6109 40.0519 72.3518 38.824 72.6292 37.4583H76.375C77.3364 37.4583 78.2584 37.0764 78.9383 36.3965C79.6181 35.7167 80 34.7947 80 33.8333V28.6012C79.9997 27.7532 79.7021 26.9321 79.159 26.2808C78.6159 25.6295 77.8617 25.1892 77.0275 25.0366ZM77.5833 30.2083H75.1667V27.1512C77.8613 27.6466 77.5833 27.5862 77.5833 30.2083ZM62.2375 22.9583H53.4167V18.1249C57.2954 18.1249 56.1233 17.7141 62.2375 22.9583ZM45.4296 22.9583L47.0367 18.1249H51V22.9583H45.4296ZM24.4167 25.3749H26.8333V26.5833C26.8333 26.9037 26.706 27.2111 26.4794 27.4377C26.2528 27.6643 25.9455 27.7916 25.625 27.7916H24.4167V25.3749ZM35.2917 39.8749C34.5747 39.8749 33.8739 39.6623 33.2777 39.264C32.6816 38.8657 32.217 38.2995 31.9426 37.6372C31.6682 36.9748 31.5964 36.2459 31.7363 35.5427C31.8762 34.8396 32.2214 34.1936 32.7284 33.6867C33.2354 33.1797 33.8813 32.8345 34.5845 32.6946C35.2876 32.5547 36.0165 32.6265 36.6789 32.9009C37.3413 33.1752 37.9074 33.6399 38.3057 34.236C38.7041 34.8321 38.9167 35.533 38.9167 36.2499C38.9167 37.2113 38.5347 38.1334 37.8549 38.8132C37.1751 39.493 36.2531 39.8749 35.2917 39.8749ZM66.7083 39.8749C65.9914 39.8749 65.2905 39.6623 64.6944 39.264C64.0983 38.8657 63.6336 38.2995 63.3593 37.6372C63.0849 36.9748 63.0131 36.2459 63.153 35.5427C63.2929 34.8396 63.6381 34.1936 64.1451 33.6867C64.652 33.1797 65.298 32.8345 66.0011 32.6946C66.7043 32.5547 67.4332 32.6265 68.0956 32.9009C68.7579 33.1752 69.3241 33.6399 69.7224 34.236C70.1207 34.8321 70.3333 35.533 70.3333 36.2499C70.3333 37.2113 69.9514 38.1334 69.2716 38.8132C68.5918 39.493 67.6697 39.8749 66.7083 39.8749ZM76.375 35.0416H72.6292C72.3518 33.6758 71.6109 32.4479 70.5318 31.566C69.4528 30.684 68.102 30.2022 66.7083 30.2022C65.3147 30.2022 63.9639 30.684 62.8849 31.566C61.8058 32.4479 61.0648 33.6758 60.7875 35.0416H41.2125C40.9352 33.6758 40.1942 32.4479 39.1151 31.566C38.0361 30.684 36.6853 30.2022 35.2917 30.2022C33.898 30.2022 32.5472 30.684 31.4682 31.566C30.3891 32.4479 29.6482 33.6758 29.3708 35.0416H25.625C25.3045 35.0416 24.9972 34.9143 24.7706 34.6877C24.544 34.4611 24.4167 34.1537 24.4167 33.8333V30.2083H25.625C26.5864 30.2083 27.5084 29.8264 28.1883 29.1465C28.8681 28.4667 29.25 27.5447 29.25 26.5833V25.3749H38.9167C40.125 25.3749 40.0042 24.7345 41.9254 18.9466C42.2396 18.0162 43.0008 18.1249 44.4871 18.1249L43.1338 22.197C43.0132 22.5604 42.9806 22.9472 43.0388 23.3256C43.097 23.704 43.2442 24.0631 43.4684 24.3735C43.6926 24.6838 43.9874 24.9364 44.3283 25.1106C44.6693 25.2847 45.0467 25.3753 45.4296 25.3749C69.3788 25.3749 62.9383 24.9279 72.75 26.7162V30.2083C72.75 30.8492 73.0046 31.4639 73.4578 31.9171C73.911 32.3703 74.5257 32.6249 75.1667 32.6249H77.5833V33.8333C77.5833 34.1537 77.456 34.4611 77.2294 34.6877C77.0028 34.9143 76.6955 35.0416 76.375 35.0416Z" fill="#24272C"/>
</g>
<defs>
<clipPath id="clip0_4002_17534">
<rect width="58" height="58" fill="white" transform="translate(22)"/>
</clipPath>
</defs>
</svg>
