<svg width="103" height="58" viewBox="0 0 103 58" fill="none" xmlns="http://www.w3.org/2000/svg">
<g clip-path="url(#clip0_4002_17516)">
<path d="M65.9605 35.1387C65.7951 35.0682 65.616 35.0356 65.4364 35.0431C65.2568 35.0507 65.0811 35.0982 64.9222 35.1822C64.7633 35.2663 64.6251 35.3847 64.5178 35.5289C64.4105 35.6731 64.3366 35.8395 64.3017 36.0158C64.2668 36.1922 64.2717 36.3741 64.316 36.5483C64.3604 36.7225 64.443 36.8847 64.5579 37.0229C64.6728 37.1611 64.8172 37.272 64.9804 37.3474C65.1436 37.4228 65.3215 37.4608 65.5013 37.4587C65.7786 37.4554 66.0463 37.3569 66.2596 37.1796C66.4728 37.0023 66.6186 36.757 66.6724 36.485C66.7263 36.213 66.6849 35.9307 66.5553 35.6855C66.4256 35.4404 66.2156 35.2473 65.9605 35.1387ZM36.0421 35.1387C35.8393 35.222 35.6631 35.3589 35.5321 35.5347C35.4012 35.7105 35.3206 35.9187 35.2989 36.1368C35.2772 36.3549 35.3153 36.5749 35.409 36.773C35.5028 36.9712 35.6486 37.1401 35.831 37.2617C36.0134 37.3833 36.2255 37.453 36.4445 37.4633C36.6634 37.4737 36.8811 37.4242 37.0741 37.3203C37.2671 37.2164 37.4283 37.0619 37.5402 36.8734C37.6521 36.6849 37.7107 36.4695 37.7096 36.2503C37.7086 36.0524 37.6591 35.8578 37.5652 35.6835C37.4714 35.5093 37.3362 35.3607 37.1716 35.251C37.0069 35.1412 36.8178 35.0735 36.6208 35.0539C36.4239 35.0344 36.2252 35.0635 36.0421 35.1387ZM54.6263 27.792H52.2096C51.8892 27.792 51.5818 27.9193 51.3552 28.1459C51.1286 28.3725 51.0013 28.6799 51.0013 29.0003C51.0013 29.3208 51.1286 29.6281 51.3552 29.8547C51.5818 30.0814 51.8892 30.2087 52.2096 30.2087H54.6263C54.9468 30.2087 55.2541 30.0814 55.4807 29.8547C55.7073 29.6281 55.8346 29.3208 55.8346 29.0003C55.8346 28.6799 55.7073 28.3725 55.4807 28.1459C55.2541 27.9193 54.9468 27.792 54.6263 27.792Z" fill="#24272C"/>
<path d="M74.9502 24.7228L64.8243 23.0311L57.9731 17.1586C55.7377 15.2494 54.7348 15.7086 41.3343 15.7086C38.1323 15.7086 35.2202 15.4428 31.9335 18.0044C26.2181 22.439 23.6685 23.8044 22.2668 27.8765C21.8923 29.1332 22.001 29.9307 22.001 32.6253C22.001 33.9071 22.5102 35.1365 23.4167 36.0429C24.3231 36.9494 25.5525 37.4586 26.8343 37.4586H30.5802C30.8575 38.8244 31.5985 40.0522 32.6775 40.9342C33.7566 41.8162 35.1074 42.298 36.501 42.298C37.8946 42.298 39.2454 41.8162 40.3245 40.9342C41.4035 40.0522 42.1445 38.8244 42.4218 37.4586H59.5802C59.8575 38.8244 60.5985 40.0522 61.6775 40.9342C62.7566 41.8162 64.1074 42.298 65.501 42.298C66.8946 42.298 68.2454 41.8162 69.3245 40.9342C70.4035 40.0522 71.1445 38.8244 71.4218 37.4586H75.1677C76.4495 37.4586 77.6789 36.9494 78.5853 36.0429C79.4918 35.1365 80.001 33.9071 80.001 32.6253V30.6798C80.0003 29.2497 79.4924 27.8662 78.5676 26.7754C77.6427 25.6847 76.3609 24.9573 74.9502 24.7228ZM61.0302 22.9586H51.001V18.1253C56.2814 18.1253 54.626 17.4848 61.0302 22.9586ZM48.5843 18.1253V22.9586H38.7606L41.9868 18.1253H48.5843ZM36.501 39.8753C35.784 39.8753 35.0832 39.6627 34.4871 39.2643C33.8909 38.866 33.4263 38.2999 33.1519 37.6375C32.8776 36.9751 32.8058 36.2462 32.9457 35.5431C33.0855 34.8399 33.4308 34.194 33.9377 33.687C34.4447 33.18 35.0906 32.8348 35.7938 32.6949C36.497 32.555 37.2258 32.6268 37.8882 32.9012C38.5506 33.1756 39.1168 33.6402 39.5151 34.2363C39.9134 34.8324 40.126 35.5333 40.126 36.2503C40.126 37.2117 39.7441 38.1337 39.0643 38.8135C38.3844 39.4933 37.4624 39.8753 36.501 39.8753ZM65.501 39.8753C64.784 39.8753 64.0832 39.6627 63.4871 39.2643C62.8909 38.866 62.4263 38.2999 62.1519 37.6375C61.8776 36.9751 61.8058 36.2462 61.9457 35.5431C62.0855 34.8399 62.4308 34.194 62.9377 33.687C63.4447 33.18 64.0906 32.8348 64.7938 32.6949C65.497 32.555 66.2258 32.6268 66.8882 32.9012C67.5506 33.1756 68.1168 33.6402 68.5151 34.2363C68.9134 34.8324 69.126 35.5333 69.126 36.2503C69.126 37.2117 68.7441 38.1337 68.0643 38.8135C67.3844 39.4933 66.4624 39.8753 65.501 39.8753ZM75.1677 35.0419H71.4218C71.1445 33.6762 70.4035 32.4483 69.3245 31.5663C68.2454 30.6843 66.8946 30.2025 65.501 30.2025C64.1074 30.2025 62.7566 30.6843 61.6775 31.5663C60.5985 32.4483 59.8575 33.6762 59.5802 35.0419H42.4218C42.1445 33.6762 41.4035 32.4483 40.3245 31.5663C39.2454 30.6843 37.8946 30.2025 36.501 30.2025C35.1074 30.2025 33.7566 30.6843 32.6775 31.5663C31.5985 32.4483 30.8575 33.6762 30.5802 35.0419H26.8343C26.1934 35.0419 25.5787 34.7873 25.1255 34.3341C24.6723 33.8809 24.4177 33.2662 24.4177 32.6253H25.626C25.9465 32.6253 26.2538 32.498 26.4804 32.2713C26.707 32.0447 26.8343 31.7374 26.8343 31.4169C26.8343 31.0965 26.707 30.7891 26.4804 30.5625C26.2538 30.3359 25.9465 30.2086 25.626 30.2086H24.4177C24.3802 29.6783 24.4417 29.1456 24.5989 28.6378C25.6381 25.5323 27.0156 24.8919 33.4198 19.9015C35.0353 18.6592 37.039 18.0299 39.0748 18.1253C36.9118 21.3757 35.7398 22.4269 36.6581 24.0944C36.8616 24.4767 37.1641 24.7973 37.534 25.0226C37.9039 25.248 38.3275 25.3698 38.7606 25.3753C69.2831 25.3753 61.5014 24.9282 74.5514 27.1032C75.3244 27.2242 76.0374 27.592 76.5841 28.1517C77.1307 28.7115 77.4816 29.433 77.5843 30.2086H76.376C76.0555 30.2086 75.7482 30.3359 75.5216 30.5625C75.295 30.7891 75.1677 31.0965 75.1677 31.4169C75.1677 31.7374 75.295 32.0447 75.5216 32.2713C75.7482 32.498 76.0555 32.6253 76.376 32.6253H77.5843C77.5843 33.2662 77.3297 33.8809 76.8765 34.3341C76.4233 34.7873 75.8086 35.0419 75.1677 35.0419Z" fill="#24272C"/>
</g>
<defs>
<clipPath id="clip0_4002_17516">
<rect width="58" height="58" fill="white" transform="translate(22)"/>
</clipPath>
</defs>
</svg>
