<svg width="103" height="58" viewBox="0 0 103 58" fill="none" xmlns="http://www.w3.org/2000/svg">
<path d="M67.8197 35.7905C67.6968 35.4967 67.4628 35.2633 67.1686 35.1411C66.8744 35.0189 66.5439 35.0178 66.2489 35.138C66.0272 35.2284 65.8373 35.3827 65.7034 35.5812C65.5694 35.7797 65.4975 36.0135 65.4967 36.253C65.4959 36.4924 65.5663 36.7267 65.6989 36.9261C65.8315 37.1255 66.0204 37.281 66.2415 37.3729C66.4627 37.4647 66.7061 37.4888 66.941 37.4421C67.1758 37.3953 67.3915 37.2798 67.5606 37.1103C67.7297 36.9407 67.8446 36.7248 67.8907 36.4898C67.9369 36.2548 67.9122 36.0114 67.8197 35.7905ZM34.4335 35.3918C34.206 35.6193 34.0781 35.9279 34.0781 36.2497C34.0781 36.5715 34.206 36.8801 34.4335 37.1076C34.661 37.3352 34.9696 37.463 35.2914 37.463C35.6132 37.463 35.9218 37.3352 36.1493 37.1076C36.262 36.995 36.3514 36.8612 36.4123 36.714C36.4733 36.5668 36.5047 36.409 36.5047 36.2497C36.5047 36.0904 36.4733 35.9326 36.4123 35.7854C36.3514 35.6382 36.262 35.5045 36.1493 35.3918C36.0367 35.2791 35.9029 35.1898 35.7557 35.1288C35.6085 35.0678 35.4507 35.0364 35.2914 35.0364C35.1321 35.0364 34.9743 35.0678 34.8271 35.1288C34.6799 35.1898 34.5461 35.2791 34.4335 35.3918ZM55.8331 27.7914H53.4164C53.0959 27.7914 52.7886 27.9187 52.562 28.1453C52.3354 28.3719 52.2081 28.6792 52.2081 28.9997C52.2081 29.3202 52.3354 29.6275 52.562 29.8541C52.7886 30.0807 53.0959 30.208 53.4164 30.208H55.8331C56.1535 30.208 56.4609 30.0807 56.6875 29.8541C56.9141 29.6275 57.0414 29.3202 57.0414 28.9997C57.0414 28.6792 56.9141 28.3719 56.6875 28.1453C56.4609 27.9187 56.1535 27.7914 55.8331 27.7914Z" fill="#24272C"/>
<path d="M77.0271 25.0364L66.0313 23.0306L59.18 17.1581C56.8963 15.2006 57.8025 15.7081 27.3646 15.7081C26.6032 15.707 25.8607 15.9457 25.2426 16.3903C24.6244 16.8349 24.162 17.4629 23.9209 18.1852C22.6654 22.0259 22.049 26.0468 22.0963 30.0873C22.1688 33.7123 21.915 35.0173 23.1354 36.3102C24.525 37.7964 26.0596 37.4581 29.3704 37.4581C29.6478 38.8239 30.3887 40.0518 31.4678 40.9337C32.5469 41.8157 33.8976 42.2975 35.2913 42.2975C36.6849 42.2975 38.0357 41.8157 39.1148 40.9337C40.1938 40.0518 40.9348 38.8239 41.2121 37.4581H60.7871C61.0644 38.8239 61.8054 40.0518 62.8845 40.9337C63.9635 41.8157 65.3143 42.2975 66.708 42.2975C68.1016 42.2975 69.4524 41.8157 70.5314 40.9337C71.6105 40.0518 72.3515 38.8239 72.6288 37.4581H76.3746C77.336 37.4581 78.2581 37.0762 78.9379 36.3964C79.6177 35.7165 79.9996 34.7945 79.9996 33.8331V28.601C79.9993 27.753 79.7018 26.9319 79.1586 26.2806C78.6155 25.6293 77.8613 25.1891 77.0271 25.0364ZM77.583 29.9906C76.9623 29.7816 76.4098 29.4083 75.9843 28.9104C75.5588 28.4126 75.2761 27.8087 75.1663 27.1631C77.8125 27.6343 77.583 27.6585 77.583 29.9906ZM62.2371 22.9581H52.2079V18.1248C57.4884 18.1248 55.8329 17.4843 62.2371 22.9581ZM43.7496 18.1248V22.9581H37.7079V18.1248H43.7496ZM24.7909 25.3748H26.8329V26.5831C26.8329 26.9036 26.7056 27.2109 26.479 27.4375C26.2524 27.6641 25.9451 27.7914 25.6246 27.7914H24.5734C24.6096 26.9818 24.6942 26.1723 24.7909 25.3748ZM35.2913 39.8748C34.5743 39.8748 33.8735 39.6622 33.2773 39.2638C32.6812 38.8655 32.2166 38.2994 31.9422 37.637C31.6679 36.9746 31.5961 36.2457 31.7359 35.5426C31.8758 34.8394 32.2211 34.1935 32.728 33.6865C33.235 33.1795 33.8809 32.8343 34.5841 32.6944C35.2873 32.5545 36.0161 32.6263 36.6785 32.9007C37.3409 33.1751 37.907 33.6397 38.3054 34.2358C38.7037 34.832 38.9163 35.5328 38.9163 36.2498C38.9163 37.2112 38.5344 38.1332 37.8545 38.813C37.1747 39.4928 36.2527 39.8748 35.2913 39.8748ZM66.708 39.8748C65.991 39.8748 65.2901 39.6622 64.694 39.2638C64.0979 38.8655 63.6333 38.2994 63.3589 37.637C63.0845 36.9746 63.0127 36.2457 63.1526 35.5426C63.2925 34.8394 63.6377 34.1935 64.1447 33.6865C64.6517 33.1795 65.2976 32.8343 66.0007 32.6944C66.7039 32.5545 67.4328 32.6263 68.0952 32.9007C68.7576 33.1751 69.3237 33.6397 69.722 34.2358C70.1203 34.832 70.333 35.5328 70.333 36.2498C70.333 37.2112 69.951 38.1332 69.2712 38.813C68.5914 39.4928 67.6694 39.8748 66.708 39.8748ZM76.3746 35.0414H72.6288C72.3515 33.6757 71.6105 32.4478 70.5314 31.5658C69.4524 30.6838 68.1016 30.202 66.708 30.202C65.3143 30.202 63.9635 30.6838 62.8845 31.5658C61.8054 32.4478 61.0644 33.6757 60.7871 35.0414H41.2121C40.9348 33.6757 40.1938 32.4478 39.1148 31.5658C38.0357 30.6838 36.6849 30.202 35.2913 30.202C33.8976 30.202 32.5469 30.6838 31.4678 31.5658C30.3887 32.4478 29.6478 33.6757 29.3704 35.0414C23.8967 35.0414 24.6096 35.7664 24.5371 30.2081H25.6246C26.586 30.2081 27.5081 29.8262 28.1879 29.1464C28.8677 28.4665 29.2496 27.5445 29.2496 26.5831V24.1664C29.2496 23.846 29.1223 23.5386 28.8957 23.312C28.6691 23.0854 28.3618 22.9581 28.0413 22.9581H25.1896C25.4479 21.6007 25.7909 20.2609 26.2167 18.9464C26.5913 17.8468 26.8934 18.1248 35.2913 18.1248V24.1664C35.2913 24.4869 35.4186 24.7942 35.6452 25.0209C35.8718 25.2475 36.1791 25.3748 36.4996 25.3748H44.9579C45.2784 25.3748 45.5858 25.2475 45.8124 25.0209C46.039 24.7942 46.1663 24.4869 46.1663 24.1664V18.1248H49.7913V22.9581C49.7913 23.599 50.0459 24.2137 50.4991 24.6669C50.9523 25.1202 51.567 25.3748 52.2079 25.3748C68.0371 25.3748 63.4817 25.0244 72.7496 26.716C72.7795 28.0859 73.2742 29.4049 74.1525 30.4566C75.0307 31.5083 76.2404 32.2302 77.583 32.5039V33.8331C77.583 34.1536 77.4556 34.4609 77.229 34.6875C77.0024 34.9141 76.6951 35.0414 76.3746 35.0414Z" fill="#24272C"/>
</svg>
