<svg width="19" height="19" viewBox="0 0 19 19" fill="none" xmlns="http://www.w3.org/2000/svg">
<g clip-path="url(#clip0_1825_7272)">
<path d="M13.1087 7.0775L6.0312 0L4.91495 1.11625L6.79911 3.00042L2.72203 7.0775C2.25495 7.54458 2.25495 8.29667 2.72203 8.75583L7.0762 13.11C7.30578 13.3396 7.61453 13.4583 7.91536 13.4583C8.2162 13.4583 8.52495 13.3396 8.75453 13.11L13.1087 8.75583C13.5758 8.29667 13.5758 7.54458 13.1087 7.0775ZM4.12328 7.91667L7.91536 4.12458L11.7074 7.91667H4.12328ZM15.0404 9.10417C15.0404 9.10417 13.457 10.8221 13.457 11.875C13.457 12.7458 14.1695 13.4583 15.0404 13.4583C15.9112 13.4583 16.6237 12.7458 16.6237 11.875C16.6237 10.8221 15.0404 9.10417 15.0404 9.10417ZM1.58203 15.8333H17.4154V19H1.58203V15.8333Z" fill="#0B0E28"/>
</g>
<defs>
<clipPath id="clip0_1825_7272">
<rect width="19" height="19" fill="white"/>
</clipPath>
</defs>
</svg>
