<svg width="23" height="23" viewBox="0 0 23 23" fill="none" xmlns="http://www.w3.org/2000/svg">
<path d="M11.4455 11.5991C11.1484 11.3004 11.0584 10.7755 11.4455 10.3421C11.9207 9.96006 12.4028 10.0519 12.6929 10.3421C13.0573 10.7065 13.0326 11.2594 12.6929 11.5991C12.363 11.929 11.7914 11.945 11.4455 11.5991Z" fill="black"/>
<path d="M1.14566 15.3536C1.49121 15.0081 2.05101 15.0081 2.39656 15.3536L2.8 15.7575C3.18745 15.542 3.6114 15.3967 4.05349 15.3528L7.92584 11.4804L5.43138 8.98596C5.08583 8.64041 5.08583 8.08061 5.43138 7.73506L9.7387 3.42774L9.74043 3.42515L9.74302 3.42342L11.9839 1.18251C12.2811 0.885335 12.7459 0.839549 13.0966 1.06934C16.5392 3.34222 19.523 6.3252 21.9652 9.93536C22.2028 10.287 22.1579 10.7569 21.8581 11.0567L15.3056 17.6092C15.1328 17.782 14.9064 17.8684 14.6801 17.8684C14.4538 17.8684 14.2274 17.782 14.0547 17.6092L11.4816 15.0361L7.60837 18.9085C7.56452 19.3505 7.41939 19.7741 7.20407 20.1612L7.60837 20.5654C7.95392 20.911 7.95392 21.4708 7.60837 21.8163C7.26282 22.1619 6.70303 22.1619 6.35746 21.8163L5.95273 21.4116C4.63601 22.1479 3.09293 21.8901 2.07866 20.8773C1.03206 19.8293 0.865547 18.2444 1.55104 17.0103L1.14566 16.6045C0.800108 16.259 0.800108 15.6983 1.14566 15.3536ZM12.7182 2.95088L11.6176 4.05141L18.9891 11.4238L20.0854 10.3276C18 7.38605 15.5267 4.90843 12.7182 2.95088ZM14.6801 15.7329L17.7382 12.6747L10.3665 5.3022L7.30773 8.36051C17.7371 18.7842 5.37269 6.4254 14.6801 15.7329ZM3.32956 19.6264C3.90459 20.1997 4.83594 20.2192 5.42361 19.6316C5.71301 19.3422 5.86592 18.9595 5.85382 18.5535C5.84691 18.3098 5.94107 18.074 6.11299 17.9021L10.2307 13.7853L9.17674 12.7313L5.05991 16.8482C4.888 17.0201 4.65475 17.1142 4.40854 17.1073C4.0077 17.0909 3.62068 17.2481 3.32956 17.5384C2.75421 18.1137 2.75421 19.0502 3.32956 19.6264Z" fill="black"/>
</svg>
