<svg width="18" height="20" viewBox="0 0 18 20" fill="none" xmlns="http://www.w3.org/2000/svg">
<path d="M0.551144 10.4802C0.647144 8.75216 0.887144 8.08016 1.07914 7.81616C1.29514 7.55216 1.39114 7.21616 1.43914 6.85616C1.67914 4.40816 2.11114 2.15216 2.37514 0.976156C2.47114 0.496156 2.90314 0.160156 3.43114 0.160156C8.66315 0.232156 11.8791 0.904156 12.8871 1.14416C13.1031 1.19216 13.3191 1.33616 13.4631 1.50416C16.0071 4.57616 17.1831 7.26415 17.1831 7.26415C17.9031 9.52015 17.4951 11.6322 17.2071 12.6402C17.1111 13.0002 16.8711 13.3122 16.5351 13.5282C14.1111 15.0162 13.0071 17.3442 12.5511 18.6882C12.3351 19.3362 11.7351 19.7682 11.0631 19.7682H0.743143C0.047142 18.0882 0.551144 10.4802 0.551144 10.4802ZM10.9191 9.95215C10.9191 10.4322 11.3031 10.8162 11.7831 10.8162H13.4391C13.9191 10.8162 14.3031 10.4322 14.3031 9.95215C14.3031 9.47215 13.9191 9.08815 13.4391 9.08815H11.7831C11.3271 9.08815 10.9191 9.47215 10.9191 9.95215ZM3.19114 7.64816L13.3911 7.31216C13.7031 7.31216 13.9431 7.04816 13.9431 6.73616V5.44016C13.9431 4.96016 13.8231 4.50416 13.5591 4.12016L12.2631 1.98416C12.1911 1.86416 12.0471 1.76816 11.9031 1.72016C10.9671 1.50416 7.31914 0.760156 3.76714 1.12016C3.50314 1.14416 3.28714 1.36016 3.26314 1.62416L2.61514 7.04816C2.54314 7.36016 2.83114 7.67216 3.19114 7.64816Z" fill="black"/>
</svg>
