<svg width="20" height="21" viewBox="0 0 20 21" fill="none" xmlns="http://www.w3.org/2000/svg">
<path d="M10 0.613281C8.03146 0.613281 6.10713 1.19702 4.47034 2.29069C2.83356 3.38435 1.55784 4.93882 0.804516 6.75751C0.0511874 8.57621 -0.145918 10.5774 0.238126 12.5082C0.62217 14.4389 1.57011 16.2124 2.96208 17.6043C4.35405 18.9963 6.12753 19.9442 8.05825 20.3283C9.98896 20.7123 11.9902 20.5152 13.8089 19.7619C15.6276 19.0086 17.1821 17.7328 18.2757 16.0961C19.3694 14.4593 19.9531 12.5349 19.9531 10.5664C19.9502 7.92757 18.9007 5.39763 17.0347 3.53169C15.1688 1.66575 12.6388 0.616185 10 0.613281ZM10 2.62422C11.6821 2.61723 13.3225 3.14739 14.6823 4.13749C16.0422 5.1276 17.0504 6.52594 17.5603 8.12891C17.5303 8.30319 17.2109 8.47016 17.2109 8.47016C17.1988 8.47828 16.7925 8.68953 16.7316 8.70984C16.5842 8.79323 16.4215 8.84593 16.2533 8.86478C16.085 8.88363 15.9147 8.86824 15.7525 8.81953C15.6672 8.81141 15.2528 8.75453 15.1391 8.73016C14.2798 8.52986 13.4106 8.37526 12.535 8.26703C10.6627 8.0417 8.7695 8.05399 6.90032 8.30359C6.16501 8.39703 5.42807 8.52581 4.68625 8.67734C4.18918 8.74401 3.68589 8.75083 3.18719 8.69766C3.02267 8.70136 2.86102 8.65418 2.72433 8.56256C2.58763 8.47095 2.48255 8.33936 2.42344 8.18578C2.93698 6.5773 3.94673 5.17278 5.30785 4.17365C6.66898 3.17452 8.31156 2.63211 10 2.62422ZM2.30563 12.5327C3.35416 11.9103 4.90563 12.1752 4.90563 12.1752C5.57705 12.2922 6.2084 12.5757 6.74188 12.9998C7.13616 13.3483 7.45463 13.774 7.67756 14.2506C7.90049 14.7272 8.02311 15.2445 8.03782 15.7705C8.03782 15.8355 8.04594 18.2648 8.04594 18.2648C6.66324 17.9115 5.40091 17.193 4.39106 16.1846C3.3812 15.1762 2.66094 13.9149 2.30563 12.5327ZM10 12.9856C9.69372 12.9856 9.39431 12.8948 9.13964 12.7246C8.88496 12.5545 8.68647 12.3126 8.56926 12.0296C8.45205 11.7467 8.42138 11.4353 8.48114 11.1349C8.54089 10.8345 8.68838 10.5585 8.90496 10.342C9.12154 10.1254 9.39748 9.97789 9.69788 9.91813C9.99829 9.85838 10.3097 9.88905 10.5926 10.0063C10.8756 10.1235 11.1175 10.322 11.2876 10.5766C11.4578 10.8313 11.5486 11.1307 11.5486 11.437C11.5482 11.8476 11.3849 12.2412 11.0946 12.5316C10.8042 12.8219 10.4106 12.9852 10 12.9856ZM11.9134 18.273V15.9614C11.9137 15.4893 11.9948 15.0208 12.1531 14.5761C12.362 13.9667 12.7277 13.423 13.2134 12.9998C13.2409 12.9818 13.2667 12.9614 13.2906 12.9389C13.3759 12.8739 14.0056 12.488 14.0584 12.4677C14.394 12.3292 14.7443 12.2297 15.1025 12.1711C15.1598 12.1654 15.4937 12.1305 15.7647 12.1345C16.0701 12.1203 16.3759 12.1546 16.6706 12.2361C17.0094 12.3026 17.3413 12.4005 17.6619 12.5286C17.6717 12.5319 17.6812 12.536 17.6903 12.5408C17.3332 13.9281 16.6079 15.1932 15.591 16.2022C14.5741 17.2112 13.3035 17.9267 11.9134 18.273Z" fill="black"/>
</svg>
