<svg width="21" height="17" viewBox="0 0 21 17" fill="none" xmlns="http://www.w3.org/2000/svg">
<path d="M2.25 4.25H3C3.41425 4.25 3.75 4.58575 3.75 5V7.25H6V5.75C6 4.9215 6.6715 4.25 7.5 4.25H10.5V2.75H7.5C7.08575 2.75 6.75 2.41425 6.75 2V1.25C6.75 0.83575 7.08575 0.5 7.5 0.5H15.75C16.1642 0.5 16.5 0.83575 16.5 1.25V2C16.5 2.41425 16.1642 2.75 15.75 2.75H12.75V4.25H15.75C16.5785 4.25 17.25 4.9215 17.25 5.75V8.75H18.75V6.5C18.75 6.08575 19.0857 5.75 19.5 5.75H20.25C20.6642 5.75 21 6.08575 21 6.5V13.25C21 13.6642 20.6642 14 20.25 14H19.5C19.0857 14 18.75 13.6642 18.75 13.25V11H17.25V12.944C17.25 13.3765 17.0633 13.788 16.7378 14.0727L14.674 15.8787C14.4005 16.1182 14.05 16.25 13.6868 16.25C12.065 16.2502 7.5 16.25 7.5 16.25C6.6715 16.25 6 15.5785 6 14.75V12.5H3.75V14.75C3.75 15.1642 3.41425 15.5 3 15.5H2.25C1.00725 15.5 0 14.4927 0 13.25V6.5C0 5.25725 1.00725 4.25 2.25 4.25ZM9.126 10.666L10.626 12.916C10.856 13.2607 11.25 13.2497 11.25 13.2497V10.9997H12.75C13.0265 10.9997 13.2807 10.8475 13.4115 10.6035C13.5417 10.3595 13.5275 10.0637 13.3743 9.83375L11.8743 7.58375C11.6445 7.23875 11.25 7.24975 11.25 7.24975V9.49975H9.75C9.4735 9.49975 9.21925 9.652 9.0885 9.896C8.95825 10.14 8.9725 10.436 9.126 10.666Z" fill="#0B0E28"/>
</svg>
