<svg width="22" height="22" viewBox="0 0 22 22" fill="none" xmlns="http://www.w3.org/2000/svg">
<path d="M17.3642 0.188762L15.457 2.09593L17.28 3.91896L19.1763 2.02267H19.9744C20.3303 2.02267 20.6189 1.73409 20.6189 1.37814V0.644531C20.6189 0.288578 20.3303 0 19.9744 0H17.8199C17.649 0 17.4851 0.0678906 17.3642 0.188762Z" fill="#0B0E28"/>
<path d="M16.225 6.49564L16.675 6.04563C16.9267 5.79392 16.9267 5.38584 16.675 5.13413L14.2443 2.70343C13.9926 2.45172 13.5845 2.45172 13.3328 2.70343L12.8828 3.1534L16.225 6.49564Z" fill="#0B0E28"/>
<path d="M6.57031 13.7314H9.53215V16.6933H6.57031V13.7314Z" fill="#0B0E28"/>
<path d="M15.573 7.6636L11.7185 3.80909C11.3939 3.48446 10.9623 3.30566 10.5032 3.30566H2.36328C1.05806 3.30566 0 4.36373 0 5.66894V19.637C0 20.9422 1.05806 22.0003 2.36328 22.0003H13.7131C15.0184 22.0003 16.0764 20.9422 16.0764 19.637V8.87892C16.0764 8.4198 15.8976 7.98823 15.573 7.6636ZM11.9084 18.1714C12.1602 18.4231 12.1602 18.8312 11.9084 19.0829C11.7826 19.2088 11.6176 19.2717 11.4527 19.2717C11.2878 19.2717 11.1228 19.2088 10.997 19.083L9.89669 17.9827H6.17977L5.07951 19.0829C4.95365 19.2088 4.78869 19.2717 4.62378 19.2717C4.45887 19.2717 4.29387 19.2088 4.16805 19.0829C3.91634 18.8312 3.91634 18.4231 4.16805 18.1714L5.26831 17.0712V13.3542L4.16805 12.2539C3.91634 12.0022 3.91634 11.5941 4.16805 11.3424C4.41972 11.0907 4.82784 11.0907 5.07955 11.3424L6.17981 12.4427H9.89673L10.997 11.3424C11.2487 11.0907 11.6569 11.0907 11.9085 11.3424C12.1602 11.5941 12.1602 12.0022 11.9085 12.2539L10.8083 13.3541V17.0711L11.9084 18.1714ZM3.84871 8.42509C3.14699 8.42509 2.57812 7.85623 2.57812 7.1545C2.57812 6.45278 3.14699 5.88392 3.84871 5.88392H10.1472L12.6884 8.42513H3.84871V8.42509Z" fill="#0B0E28"/>
<path d="M20.3887 10.7852C19.5002 10.7852 18.7773 10.0623 18.7773 9.17387C18.7773 8.94579 18.8421 8.54382 19.4025 7.6899C19.6818 7.26425 19.9579 6.91887 19.9696 6.90435C20.0715 6.77716 20.2257 6.70312 20.3887 6.70312C20.5517 6.70312 20.7058 6.77712 20.8078 6.90435C20.8194 6.91883 21.0955 7.26421 21.3748 7.6899C21.9352 8.54382 22 8.94579 22 9.17387C22 10.0623 21.2772 10.7852 20.3887 10.7852Z" fill="#0B0E28"/>
</svg>
