<svg id="Layer_1" enable-background="new 0 0 491.5 491.5" height="512" viewBox="0 0 491.5 491.5" width="512" xmlns="http://www.w3.org/2000/svg"><g id="Layer_x0020_1"><g id="_466700152" clip-rule="evenodd" fill-rule="evenodd"><g><path id="_466701736" d="m345.4 422.7-199.3-.2v-9.5l199.3.2zm98.7.1h-18.3v-9.5h18.3c2.5 0 4.8-.9 6.5-2.6s2.7-4 2.7-6.5v-31.9c-4.9-21.2-10.2-41.2-105.3-50.7-.9-.1-1.8-.4-2.5-1-84.7-66.9-176.2-62.7-251.2 11.6-1.1 1.1-1.1 1.1-7.2 2.4-9.2 2-30.7 6.5-47.3 12.1-.9.3-1.5 1.1-1.5 2.1v50.5l14.4 13.6h13v9.5h-14.9c-1.2 0-2.4-.5-3.2-1.3l-17.3-16.3c-.9-.9-1.5-2.1-1.5-3.4v-52.6c0-5.1 3.1-9.5 8-11.1 17.1-5.7 39-10.3 48.3-12.3 1.3-.3 2.6-.6 3.5-.7 40.5-39.8 84.9-60.3 132.2-61 43.3-.6 88.1 16.2 129.5 48.7 94.3 9.6 105.7 29.3 112.4 58.4.1.4.1.7.1 1.1v32.4c0 5-1.9 9.7-5.4 13.2-3.6 3.4-8.3 5.3-13.3 5.3z"/><path id="_466701712" d="m105.9 382.3c-19.6 0-35.5 15.9-35.5 35.5 0 19.5 15.9 35.5 35.5 35.5s35.5-15.9 35.5-35.5-15.9-35.5-35.5-35.5zm0 80.4c-24.8 0-44.9-20.2-44.9-44.9 0-24.8 20.2-44.9 44.9-44.9 24.8 0 44.9 20.2 44.9 44.9.1 24.8-20.1 44.9-44.9 44.9z"/><path id="_466701448" d="m385.6 382.3c-19.5 0-35.5 15.9-35.5 35.5 0 19.5 15.9 35.5 35.5 35.5s35.5-15.9 35.5-35.5-15.9-35.5-35.5-35.5zm0 80.4c-24.8 0-44.9-20.2-44.9-44.9 0-24.8 20.2-44.9 44.9-44.9 24.8 0 44.9 20.2 44.9 44.9 0 24.8-20.1 44.9-44.9 44.9z"/><path id="_466701664" d="m193.7 321c14.3 0 23.7 2.4 34.4 5.1 17.4 4.4 39.1 10 94.6 5.7 1.3-.1 1.8-1.1 2-1.6.2-.6.2-1.6-.9-2.4-69-48-134.6-48.4-195.1-1.2-1.2.9-.9 2.1-.6 2.7s1 1.5 2.5 1.2c29.7-7.1 48.8-9.5 63.1-9.5zm92.4 21.8c-30.9 0-46.9-4.1-60.4-7.5-20.8-5.3-35.8-9.1-93.1 4.4-5.4 1.3-10.7-1.2-13.2-6.3-2.4-5.1-1.1-10.8 3.3-14.2 32.3-25.2 66.6-37.6 102.1-37 34.1.6 69.2 13.4 104.3 37.8 4.1 2.9 5.9 7.8 4.6 12.6s-5.4 8.2-10.4 8.6c-14.4 1.1-26.6 1.6-37.2 1.6z"/><path id="_466701760" d="m222.2 334.2c-1.9 0-3.8-1.2-4.5-3.1l-15.3-41.8c-.9-2.5.4-5.2 2.8-6.1 2.5-.9 5.2.4 6.1 2.8l15.3 41.8c.9 2.5-.4 5.2-2.8 6.1-.5.3-1.1.3-1.6.3z"/><path id="_466700488" d="m451 376.8c-19.7 0-27.9-6.7-31.3-12.7-4.9-8.6-2.9-20.2 5.8-32.5 1.5-2.1 4.5-2.7 6.6-1.2s2.7 4.5 1.2 6.6c-6.3 9-8.2 17.2-5.3 22.4 3.5 6.1 14 8.8 29.7 7.6 2.6-.2 4.9 1.8 5.1 4.4s-1.8 4.9-4.4 5.1c-2.7.2-5.1.3-7.4.3z"/><path id="_466700416" d="m321.5 398.7h-151.1c-2 0-3.8-1.2-4.4-3.1-3.8-10.3-10.3-19.5-18.7-26.6-2-1.7-2.2-4.7-.5-6.7s4.7-2.2 6.7-.5c8.8 7.5 15.7 16.9 20.2 27.5h147.9c2.6 0 4.7 2.1 4.7 4.7-.1 2.6-2.2 4.7-4.8 4.7z"/><path id="_466700728" d="m246.8 365.1h-13.8c-2.6 0-4.7-2.1-4.7-4.7s2.1-4.7 4.7-4.7h13.9c2.6 0 4.7 2.1 4.7 4.7 0 2.5-2.2 4.7-4.8 4.7z"/><path id="_466700344" d="m338 375.4c-1.2 0-2.4-.5-3.3-1.4-1.9-1.8-1.9-4.8 0-6.7 13.6-13.7 31.6-21.2 50.9-21.2 2.6 0 4.7 2.1 4.7 4.7s-2.1 4.7-4.7 4.7c-16.7 0-32.4 6.5-44.2 18.4-.9 1-2.1 1.5-3.4 1.5z"/><path id="_466700584" d="m105.9 403.6c-7.8 0-14.2 6.4-14.2 14.2s6.3 14.2 14.2 14.2c7.8 0 14.2-6.3 14.2-14.2 0-7.8-6.4-14.2-14.2-14.2zm0 37.8c-13 0-23.6-10.6-23.6-23.6s10.6-23.6 23.6-23.6 23.6 10.6 23.6 23.6c.1 13-10.5 23.6-23.6 23.6z"/><path id="_466700776" d="m385.6 403.6c-7.8 0-14.2 6.4-14.2 14.2s6.3 14.2 14.2 14.2c7.8 0 14.2-6.3 14.2-14.2 0-7.8-6.4-14.2-14.2-14.2zm0 37.8c-13 0-23.6-10.6-23.6-23.6s10.6-23.6 23.6-23.6 23.6 10.6 23.6 23.6-10.6 23.6-23.6 23.6z"/><path id="_466700512" d="m74.8 337.2c-1.6 0-3.2-.8-4.1-2.3-18.3-31.1-28-66.7-28-103 0-112 91.1-203.1 203.1-203.1s203.1 91.1 203.1 203.1c0 35.2-9.2 69.9-26.5 100.3-1.3 2.3-4.2 3.1-6.5 1.8s-3.1-4.2-1.8-6.5c16.5-29 25.2-62.1 25.2-95.7 0-106.7-86.8-193.6-193.6-193.6-106.7.1-193.5 86.9-193.5 193.7 0 34.6 9.2 68.6 26.7 98.2 1.3 2.3.6 5.2-1.7 6.5-.7.4-1.6.6-2.4.6z"/><path id="_466700608" d="m378.3 325.4c-.9 0-1.8-.3-2.6-.8-2.2-1.5-2.8-4.4-1.3-6.6 17.1-25.5 26.2-55.3 26.2-86.2 0-85.3-69.4-154.8-154.8-154.8-85.4.1-154.8 69.5-154.8 154.9 0 27.8 7.4 55 21.5 78.8 1.3 2.3.6 5.2-1.7 6.5-2.2 1.3-5.2.6-6.5-1.7-14.9-25.2-22.8-54.1-22.8-83.6 0-90.6 73.7-164.3 164.3-164.3s164.3 73.7 164.3 164.3c0 32.8-9.6 64.4-27.8 91.5-1 1.3-2.5 2-4 2z"/><path id="_466700392" d="m245.8 122.1c-9.9 0-17.9-8.1-17.9-18v-31.2c0-2.6 2.1-4.7 4.7-4.7s4.7 2.1 4.7 4.7v31.2c0 4.7 3.8 8.5 8.5 8.5s8.5-3.8 8.5-8.5v-31.2c0-2.6 2.1-4.7 4.7-4.7s4.7 2.1 4.7 4.7v31.2c0 9.9-8 18-17.9 18z"/><path id="_466700680" d="m336.1 159.5c-4.6 0-9.2-1.7-12.7-5.3-7-7-7-18.4 0-25.4l22.1-22.1c1.8-1.8 4.8-1.8 6.7 0 1.8 1.9 1.8 4.9 0 6.7l-22.1 22.1c-3.3 3.3-3.3 8.7 0 12s8.7 3.3 12 0l22.1-22.1c1.9-1.8 4.9-1.8 6.7 0 1.9 1.9 1.9 4.9 0 6.7l-22.1 22.1c-3.5 3.6-8.1 5.3-12.7 5.3z"/><path id="_466699720" d="m404.7 249.8h-31.3c-9.9 0-18-8.1-18-18s8.1-18 18-18h31.3c2.6 0 4.7 2.1 4.7 4.7s-2.1 4.7-4.7 4.7h-31.3c-4.7 0-8.5 3.8-8.5 8.5s3.8 8.5 8.5 8.5h31.3c2.6 0 4.7 2.1 4.7 4.7.1 2.8-2 4.9-4.7 4.9z"/><path id="_466699672" d="m155.4 159.5c-4.6 0-9.2-1.7-12.7-5.3l-22.1-22.1c-1.8-1.8-1.8-4.8 0-6.7 1.9-1.8 4.9-1.8 6.7 0l22.1 22.1c3.3 3.3 8.7 3.3 12 0s3.3-8.7 0-12l-22.1-22.1c-1.9-1.8-1.9-4.8 0-6.7 1.8-1.8 4.8-1.8 6.7 0l22.1 22.1c7 7 7 18.4 0 25.4-3.5 3.6-8.1 5.3-12.7 5.3z"/><path id="_466700104" d="m118 249.8h-31.2c-2.6 0-4.7-2.1-4.7-4.7s2.1-4.7 4.7-4.7h31.2c4.7 0 8.5-3.8 8.5-8.5s-3.8-8.5-8.5-8.5h-31.2c-2.6 0-4.7-2.1-4.7-4.7s2.1-4.7 4.7-4.7h31.2c9.9 0 18 8.1 18 18 0 9.8-8.1 17.8-18 17.8z"/><path id="_466700176" d="m275.9 281.7c-.5 0-.9-.1-1.4-.2-2.5-.8-3.9-3.4-3.1-5.9l24.7-78.9-69 75c-1.8 1.9-4.8 2.1-6.7.3s-2-4.8-.3-6.7l83.3-90.5c1.5-1.6 3.9-2 5.9-.9 1.9 1.1 2.8 3.4 2.2 5.5l-31 99.1c-.7 1.9-2.6 3.2-4.6 3.2z"/></g><path id="_466699744" d="m33.5 373.4c-2.4 0-4.4-1.8-4.7-4.2-.3-2.6 1.6-4.9 4.2-5.2 15.9-1.8 24.4-11.2 26.7-29.7.3-2.6 2.7-4.4 5.3-4.1s4.4 2.7 4.1 5.3c-3.6 28.5-21.1 36.4-35.1 37.9-.1 0-.3 0-.5 0z"/></g></g></svg>