<svg width="19" height="23" viewBox="0 0 19 23" fill="none" xmlns="http://www.w3.org/2000/svg">
<path d="M8.59114 10.3921L8.22127 9.58594L4.51172 10.1329C4.66556 10.4082 4.81697 10.6996 4.9619 11.0173L8.59114 10.3921Z" fill="black"/>
<path d="M6.06895 16.5147L10.391 14.3147L8.81081 10.8701L5.16797 11.4977C5.59914 12.5891 5.93989 14.011 6.04231 16.1485C6.04852 16.2743 6.05898 16.3953 6.06895 16.5147Z" fill="black"/>
<path d="M9.26805 16.5834L12.0201 15.0683C11.4365 14.8952 10.9885 14.7575 10.7755 14.6914L7.35156 16.4342C7.94588 16.3816 8.60774 16.4054 9.26805 16.5834Z" fill="black"/>
<path d="M3.23027 7.37949L6.9626 6.83304L6.71577 6.29492L2.98047 6.76057C3.06309 6.96738 3.14646 7.17423 3.23027 7.37949Z" fill="black"/>
<path d="M14.2737 15.7107C13.721 15.5603 13.1861 15.4093 12.7039 15.2695L9.91016 16.8076C10.3365 16.9984 10.7475 17.278 11.1281 17.6523L14.2737 15.7107Z" fill="black"/>
<path d="M10.8761 14.069C10.8782 14.0679 10.8806 14.0682 10.8828 14.0672C10.8848 14.0662 10.886 14.0643 10.8881 14.0633C11.9178 13.6035 12.4341 12.7737 12.4235 11.5969C12.4178 11.0179 12.2114 10.4392 11.8405 9.96762L10.3712 8.09687C10.0769 7.72314 9.93928 7.25581 9.98396 6.78138C10.0442 6.14775 9.95843 5.59603 9.74072 5.13047C8.99943 3.5409 7.62202 3.58185 7.12109 3.65538V5.96479L10.8462 14.0843L10.8761 14.069Z" fill="black"/>
<path d="M5.58094 16.7649C5.57682 16.7139 5.57381 16.664 5.56902 16.6119C5.55696 16.47 5.5442 16.3239 5.53711 16.1732C5.37896 12.8689 4.63648 11.3439 3.88974 10.0646C3.20545 8.89106 1.7687 5.06552 1.42006 4.12695C1.32246 4.15133 1.22491 4.17744 1.12891 4.20416C1.14646 5.86877 1.9084 8.18235 3.29263 10.7482C4.40317 12.8043 5.09694 14.8009 5.42222 16.8458L5.58094 16.7649Z" fill="black"/>
<path d="M3.42969 7.86396C3.73498 8.59448 4.02573 9.24429 4.24907 9.65857L8.00423 9.10494L7.18285 7.31445L3.42969 7.86396Z" fill="black"/>
<path d="M18.25 16.1043C17.2419 14.7653 15.6844 13.9688 14.0425 13.9688C14.0276 13.9688 14.0134 13.9688 13.9992 13.9691C12.909 13.9785 11.9977 14.2189 11.5 14.3815C12.9699 14.8261 16.3732 15.8215 18.25 16.1043ZM13.6971 14.2836L14.2524 14.4506C14.3871 14.491 14.463 14.6325 14.4226 14.7669C14.39 14.8772 14.2886 14.9481 14.1794 14.9481C14.1553 14.9481 14.1304 14.9445 14.1063 14.9371L13.5511 14.7701C13.4163 14.7297 13.3404 14.5882 13.3809 14.4538C13.4206 14.3191 13.5638 14.2428 13.6971 14.2836Z" fill="black"/>
<path d="M4.49317 16.7578C4.34637 16.7067 4.22014 16.7298 4.09746 16.8277L3.82031 17.0569C4.07756 17.1585 4.32718 17.3406 4.52508 17.5893C4.70481 17.8141 4.81353 18.0674 4.86667 18.3162L5.15268 18.0495C5.28529 17.9424 5.3243 17.8499 5.30089 17.7184C5.27537 17.5705 5.17183 17.3826 4.99383 17.1592C4.83073 16.9553 4.65344 16.8128 4.49317 16.7578Z" fill="black"/>
<path d="M18.6402 16.6651C17.7472 16.5796 16.3427 16.2573 14.9494 15.8916L11.4766 18.0352C12.3527 19.1084 12.5122 20.2735 12.0461 22.1972C12.454 22.0383 12.9271 21.7285 13.2073 21.5456L13.4017 21.42L18.2026 18.3771C18.5905 18.1501 18.8267 17.7385 18.8267 17.2981C18.8267 17.0708 18.7556 16.8571 18.6402 16.6651Z" fill="black"/>
<path d="M2.33406 1.13477C2.08133 1.20564 1.84226 1.2762 1.66368 1.33772C0.703753 1.66721 0.502528 2.8117 0.472656 3.87463C0.684028 3.7968 0.962062 3.71219 1.34598 3.62049C1.40231 3.16158 1.61395 1.98389 2.33406 1.13477Z" fill="black"/>
<path d="M4.65943 16.2775C4.70885 16.2944 4.75703 16.334 4.80623 16.359C4.45652 14.5679 3.82347 12.8033 2.8447 10.9893C1.44133 8.3888 0.683858 6.10997 0.625797 4.36035C0.482104 4.4115 0.368727 4.45946 0.314434 4.49735C0.133598 5.20828 -0.0975867 7.01734 1.25548 9.42244C1.69516 10.2032 1.98166 11.1326 2.15611 12.347C2.30078 13.3554 2.76599 14.4199 3.15531 15.2347C3.38362 15.7101 3.6179 16.093 3.85423 16.3869C4.09862 16.2244 4.37949 16.1816 4.65943 16.2775Z" fill="black"/>
<path d="M5.76311 4.74691C5.90352 4.72599 6.00281 4.59444 5.98437 4.45367C5.96735 4.33099 5.86948 4.23809 5.74538 4.22852L5.03906 4.28915L5.08941 4.85754L5.76311 4.74691Z" fill="black"/>
<path d="M5.69165 17.3133C5.74363 17.4229 5.7872 17.5299 5.80471 17.6304C5.85932 17.946 5.7494 18.2236 5.48701 18.4335L4.64524 19.2189C4.64422 19.2199 4.64263 19.2194 4.64161 19.2203C4.63762 19.2237 4.63513 19.2285 4.63106 19.2317C4.49703 19.3384 4.33321 19.3895 4.15805 19.3895C4.13881 19.3895 4.11829 19.3821 4.09879 19.3809C4.07477 19.4718 4.06777 19.5664 4.09919 19.6593C4.14671 19.8011 4.25095 19.9072 4.39278 19.9579C6.51387 20.7167 11.4425 22.2637 11.4921 22.2793C11.4964 22.2807 11.5023 22.2796 11.5066 22.2808C12.0306 20.2564 11.8773 19.1885 10.9135 18.1431C9.20374 16.2894 6.52441 17.023 5.69165 17.3133Z" fill="black"/>
<path d="M4.31123 18.835L4.31345 18.833C4.38405 18.7751 4.41587 18.6564 4.39965 18.5067C4.37838 18.3138 4.2791 18.095 4.12875 17.9068C4.12875 17.9064 4.12875 17.9064 4.12875 17.9064C3.97841 17.7178 3.78694 17.5731 3.60327 17.5096C3.53803 17.4869 3.47562 17.4756 3.42173 17.4756C3.35719 17.4756 3.3033 17.4912 3.26429 17.5224C3.19125 17.5805 3.15934 17.7 3.17636 17.8507C3.19763 18.0436 3.2962 18.2624 3.44655 18.451C3.74594 18.8258 4.14967 18.9626 4.31123 18.835Z" fill="black"/>
<path d="M3.80955 4.92053L3.81593 4.3252L3.56205 4.36136L3.26562 4.76806L3.29328 5.01662L3.80955 4.92053Z" fill="black"/>
<path d="M2.78328 6.27317L6.61175 5.79586V3.46349C6.46522 1.83655 5.68138 1.16503 5.04877 0.888411C4.54172 0.665737 3.97014 0.662192 3.48224 0.878129C2.11752 1.4818 1.86798 3.46624 1.83594 3.79378C1.92387 4.03126 2.3163 5.08648 2.78328 6.27317ZM4.64739 3.95728C4.7332 3.85587 4.85375 3.79382 4.98636 3.78318L5.74445 3.72149C6.14371 3.74914 6.43942 4.02855 6.48765 4.38561C6.54225 4.80118 6.25079 5.18838 5.83664 5.24936L5.14947 5.34971C5.12536 5.35326 5.10196 5.35503 5.07784 5.35503C4.96721 5.35503 4.8573 5.31744 4.76936 5.24795C4.66228 5.1632 4.59491 5.03697 4.58285 4.90152L4.53179 4.32144C4.53179 4.32108 4.53179 4.32073 4.53179 4.32073C4.52045 4.18811 4.56158 4.05905 4.64739 3.95728ZM3.21418 3.97537C3.25673 3.91757 3.32127 3.88034 3.39218 3.87218L3.79782 3.82786C3.79853 3.82751 3.79995 3.82751 3.80066 3.82751C4.10205 3.82751 4.32401 4.05089 4.32401 4.32533V4.92776C4.32401 5.1781 4.13679 5.39084 3.88859 5.42275L3.11774 5.56671C3.10213 5.56955 3.08653 5.57097 3.07093 5.57097C3.01704 5.57097 2.96385 5.55359 2.91988 5.52097C2.86315 5.47878 2.82628 5.41495 2.81847 5.34475L2.74969 4.72636C2.74259 4.66325 2.75961 4.60013 2.79649 4.54872L3.21418 3.97537Z" fill="black"/>
</svg>
