<svg width="24" height="24" viewBox="0 0 24 24" fill="none" xmlns="http://www.w3.org/2000/svg">
<g clip-path="url(#clip0_1825_7309)">
<path d="M20.3792 8.57012L19.1492 10.4201C19.7424 11.6032 20.0328 12.915 19.9944 14.2378C19.956 15.5607 19.59 16.8534 18.9292 18.0001H5.0692C4.21036 16.5102 3.85449 14.7832 4.05434 13.0752C4.25418 11.3671 4.99911 9.76895 6.17867 8.51755C7.35824 7.26615 8.90966 6.42816 10.6029 6.12782C12.2962 5.82747 14.0412 6.08076 15.5792 6.85012L17.4292 5.62012C15.5457 4.41234 13.3115 3.87113 11.0841 4.08306C8.85665 4.29499 6.76464 5.24782 5.14269 6.78913C3.52074 8.33045 2.46256 10.3712 2.13741 12.5849C1.81227 14.7987 2.23895 17.0575 3.3492 19.0001C3.52371 19.3024 3.77428 19.5537 4.07603 19.7292C4.37777 19.9046 4.72017 19.998 5.0692 20.0001H18.9192C19.2716 20.0015 19.6181 19.9098 19.9237 19.7342C20.2293 19.5586 20.483 19.3053 20.6592 19.0001C21.5806 17.404 22.043 15.5844 21.9953 13.7421C21.9477 11.8998 21.3918 10.1064 20.3892 8.56012L20.3792 8.57012ZM10.5892 15.4101C10.7749 15.5961 10.9955 15.7436 11.2383 15.8442C11.4811 15.9449 11.7414 15.9967 12.0042 15.9967C12.267 15.9967 12.5273 15.9449 12.7701 15.8442C13.0129 15.7436 13.2334 15.5961 13.4192 15.4101L19.0792 6.92012L10.5892 12.5801C10.4032 12.7659 10.2557 12.9864 10.1551 13.2292C10.0544 13.472 10.0026 13.7323 10.0026 13.9951C10.0026 14.258 10.0544 14.5182 10.1551 14.761C10.2557 15.0038 10.4032 15.2244 10.5892 15.4101Z" fill="#0B0E28"/>
</g>
<defs>
<clipPath id="clip0_1825_7309">
<rect width="24" height="24" fill="white"/>
</clipPath>
</defs>
</svg>
