<svg width="19" height="19" viewBox="0 0 19 19" fill="none" xmlns="http://www.w3.org/2000/svg">
<path d="M18.7992 2.99031C18.7992 1.78131 17.8382 0.820312 16.6292 0.820312C15.4202 0.820312 14.4592 1.78131 14.4592 2.99031C14.4592 3.98231 15.1102 4.78831 16.0092 5.06731V8.88031H10.1192V5.06731C11.0182 4.78831 11.6692 3.98231 11.6692 2.99031C11.6692 1.78131 10.7082 0.820312 9.49922 0.820312C8.29022 0.820312 7.32922 1.78131 7.32922 2.99031C7.32922 3.98231 7.98022 4.78831 8.87922 5.06731V8.88031H2.98922V5.06731C3.88822 4.78831 4.53922 3.98231 4.53922 2.99031C4.53922 1.78131 3.57822 0.820312 2.36922 0.820312C1.16022 0.820312 0.199219 1.78131 0.199219 2.99031C0.199219 3.98231 0.850219 4.78831 1.74922 5.06731V13.9333C0.850219 14.2123 0.199219 15.0183 0.199219 16.0103C0.199219 17.2193 1.16022 18.1803 2.36922 18.1803C3.57822 18.1803 4.53922 17.2193 4.53922 16.0103C4.53922 15.0183 3.88822 14.2123 2.98922 13.9333V10.1203H8.87922V13.9333C7.98022 14.2123 7.32922 15.0183 7.32922 16.0103C7.32922 17.2193 8.29022 18.1803 9.49922 18.1803C10.7082 18.1803 11.6692 17.2193 11.6692 16.0103C11.6692 15.0183 11.0182 14.2123 10.1192 13.9333V10.1203H16.6292C16.9702 10.1203 17.2492 9.84131 17.2492 9.50031V5.06731C18.1482 4.81931 18.7992 3.98231 18.7992 2.99031ZM8.56922 2.99031C8.56922 2.49431 8.97222 2.06031 9.49922 2.06031C9.99522 2.06031 10.4292 2.46331 10.4292 2.99031C10.4292 3.48631 10.0262 3.92031 9.49922 3.92031C9.00322 3.92031 8.56922 3.51731 8.56922 2.99031ZM1.43922 2.99031C1.43922 2.49431 1.84222 2.06031 2.36922 2.06031C2.86522 2.06031 3.29922 2.46331 3.29922 2.99031C3.29922 3.48631 2.89622 3.92031 2.36922 3.92031C1.84222 3.92031 1.43922 3.51731 1.43922 2.99031ZM3.29922 16.0103C3.29922 16.5063 2.89622 16.9403 2.36922 16.9403C1.87322 16.9403 1.43922 16.5373 1.43922 16.0103C1.43922 15.4833 1.84222 15.0803 2.36922 15.0803C2.86522 15.0803 3.29922 15.4833 3.29922 16.0103ZM10.4292 16.0103C10.4292 16.5063 10.0262 16.9403 9.49922 16.9403C9.00322 16.9403 8.56922 16.5373 8.56922 16.0103C8.56922 15.4833 8.97222 15.0803 9.49922 15.0803C9.99522 15.0803 10.4292 15.4833 10.4292 16.0103ZM16.6292 3.92031C16.1332 3.92031 15.6992 3.51731 15.6992 2.99031C15.6992 2.49431 16.1022 2.06031 16.6292 2.06031C17.1562 2.06031 17.5592 2.46331 17.5592 2.99031C17.5592 3.51731 17.1562 3.92031 16.6292 3.92031Z" fill="#1E1919"/>
</svg>
