<svg viewBox="0 0 24 24" xmlns="http://www.w3.org/2000/svg" xmlns:xlink="http://www.w3.org/1999/xlink"><linearGradient id="a" gradientUnits="userSpaceOnUse" x1="6.127" x2="17.873" y1="9.261" y2="14.739"><stop offset="0" stop-color="#fff" stop-opacity=".2"/><stop offset="1" stop-color="#fff" stop-opacity="0"/></linearGradient><path d="m12.707 12 4.14649-4.14648a.5.5 0 0 0 -.707-.707l-4.14649 4.14648-4.14648-4.14652a.5.5 0 0 0 -.707.707l4.14648 4.14652-4.14652 4.14648a.5.5 0 1 0 .707.707l4.14652-4.14648 4.14648 4.14649a.5.5 0 0 0 .707-.707z" fill="#f44336"/><path d="m12.707 12 4.14649-4.14648a.5.5 0 0 0 -.707-.707l-4.14649 4.14648-4.14648-4.14652a.5.5 0 0 0 -.707.707l4.14648 4.14652-4.14652 4.14648a.5.5 0 1 0 .707.707l4.14652-4.14648 4.14648 4.14649a.5.5 0 0 0 .707-.707z" fill="url(#a)"/></svg>