<svg width="19" height="17" viewBox="0 0 19 17" fill="none" xmlns="http://www.w3.org/2000/svg">
<path fill-rule="evenodd" clip-rule="evenodd" d="M3.16732 1.59375C1.96557 1.59375 0.990234 2.46642 0.990234 3.54167C0.990234 4.61692 1.96557 5.48958 3.16732 5.48958C4.36907 5.48958 5.3444 4.61692 5.3444 3.54167C5.3444 2.46642 4.36907 1.59375 3.16732 1.59375ZM3.16732 2.65625C3.71357 2.65625 4.1569 3.05292 4.1569 3.54167C4.1569 4.03042 3.71357 4.42708 3.16732 4.42708C2.62107 4.42708 2.17773 4.03042 2.17773 3.54167C2.17773 3.05292 2.62107 2.65625 3.16732 2.65625Z" fill="white"/>
<path fill-rule="evenodd" clip-rule="evenodd" d="M3.16732 11.5107C1.96557 11.5107 0.990234 12.3834 0.990234 13.4587C0.990234 14.5339 1.96557 15.4066 3.16732 15.4066C4.36907 15.4066 5.3444 14.5339 5.3444 13.4587C5.3444 12.3834 4.36907 11.5107 3.16732 11.5107ZM3.16732 12.5732C3.71357 12.5732 4.1569 12.9699 4.1569 13.4587C4.1569 13.9474 3.71357 14.3441 3.16732 14.3441C2.62107 14.3441 2.17773 13.9474 2.17773 13.4587C2.17773 12.9699 2.62107 12.5732 3.16732 12.5732Z" fill="white"/>
<path fill-rule="evenodd" clip-rule="evenodd" d="M9.5013 1.59375C8.29955 1.59375 7.32422 2.46642 7.32422 3.54167C7.32422 4.61692 8.29955 5.48958 9.5013 5.48958C10.7031 5.48958 11.6784 4.61692 11.6784 3.54167C11.6784 2.46642 10.7031 1.59375 9.5013 1.59375ZM9.5013 2.65625C10.0476 2.65625 10.4909 3.05292 10.4909 3.54167C10.4909 4.03042 10.0476 4.42708 9.5013 4.42708C8.95505 4.42708 8.51172 4.03042 8.51172 3.54167C8.51172 3.05292 8.95505 2.65625 9.5013 2.65625Z" fill="white"/>
<path fill-rule="evenodd" clip-rule="evenodd" d="M9.5013 11.5107C8.29955 11.5107 7.32422 12.3834 7.32422 13.4587C7.32422 14.5339 8.29955 15.4066 9.5013 15.4066C10.7031 15.4066 11.6784 14.5339 11.6784 13.4587C11.6784 12.3834 10.7031 11.5107 9.5013 11.5107ZM9.5013 12.5732C10.0476 12.5732 10.4909 12.9699 10.4909 13.4587C10.4909 13.9474 10.0476 14.3441 9.5013 14.3441C8.95505 14.3441 8.51172 13.9474 8.51172 13.4587C8.51172 12.9699 8.95505 12.5732 9.5013 12.5732Z" fill="white"/>
<path fill-rule="evenodd" clip-rule="evenodd" d="M15.8333 1.59375C14.6316 1.59375 13.6562 2.46642 13.6562 3.54167C13.6562 4.61692 14.6316 5.48958 15.8333 5.48958C17.0351 5.48958 18.0104 4.61692 18.0104 3.54167C18.0104 2.46642 17.0351 1.59375 15.8333 1.59375ZM15.8333 2.65625C16.3796 2.65625 16.8229 3.05292 16.8229 3.54167C16.8229 4.03042 16.3796 4.42708 15.8333 4.42708C15.2871 4.42708 14.8438 4.03042 14.8438 3.54167C14.8438 3.05292 15.2871 2.65625 15.8333 2.65625Z" fill="white"/>
<path fill-rule="evenodd" clip-rule="evenodd" d="M15.8333 11.5107C14.6316 11.5107 13.6562 12.3834 13.6562 13.4587C13.6562 14.5339 14.6316 15.4066 15.8333 15.4066C17.0351 15.4066 18.0104 14.5339 18.0104 13.4587C18.0104 12.3834 17.0351 11.5107 15.8333 11.5107ZM15.8333 12.5732C16.3796 12.5732 16.8229 12.9699 16.8229 13.4587C16.8229 13.9474 16.3796 14.3441 15.8333 14.3441C15.2871 14.3441 14.8438 13.9474 14.8438 13.4587C14.8438 12.9699 15.2871 12.5732 15.8333 12.5732Z" fill="white"/>
<path fill-rule="evenodd" clip-rule="evenodd" d="M2.57422 4.95801V12.0413C2.57422 12.3346 2.84022 12.5726 3.16797 12.5726C3.49572 12.5726 3.76172 12.3346 3.76172 12.0413V4.95801C3.76172 4.66476 3.49572 4.42676 3.16797 4.42676C2.84022 4.42676 2.57422 4.66476 2.57422 4.95801Z" fill="white"/>
<path fill-rule="evenodd" clip-rule="evenodd" d="M8.90625 4.95801V12.0413C8.90625 12.3346 9.17225 12.5726 9.5 12.5726C9.82775 12.5726 10.0938 12.3346 10.0938 12.0413V4.95801C10.0938 4.66476 9.82775 4.42676 9.5 4.42676C9.17225 4.42676 8.90625 4.66476 8.90625 4.95801Z" fill="white"/>
<path fill-rule="evenodd" clip-rule="evenodd" d="M15.2409 4.95801V7.79134C15.2409 7.88909 15.1522 7.96842 15.043 7.96842H3.16797C2.84022 7.96842 2.57422 8.20642 2.57422 8.49967C2.57422 8.79292 2.84022 9.03092 3.16797 9.03092H15.043C15.8085 9.03092 16.4284 8.47559 16.4284 7.79134C16.4284 6.75788 16.4284 4.95801 16.4284 4.95801C16.4284 4.66476 16.1624 4.42676 15.8346 4.42676C15.5069 4.42676 15.2409 4.66476 15.2409 4.95801Z" fill="white"/>
</svg>
