<?xml version="1.0" standalone="no"?>
<!DOCTYPE svg PUBLIC "-//W3C//DTD SVG 20010904//EN"
 "http://www.w3.org/TR/2001/REC-SVG-20010904/DTD/svg10.dtd">
<svg version="1.0" xmlns="http://www.w3.org/2000/svg"
 width="512.000000pt" height="512.000000pt" viewBox="0 0 512.000000 512.000000"
 preserveAspectRatio="xMidYMid meet">

<g transform="translate(0.000000,512.000000) scale(0.100000,-0.100000)"
fill="#000000" stroke="none">
<path d="M940 4368 c-52 -15 -86 -43 -109 -91 -20 -41 -21 -60 -21 -330 0
-236 3 -294 15 -324 21 -50 42 -72 90 -94 36 -17 70 -19 328 -19 219 0 295 3
320 14 39 16 94 76 104 114 5 15 8 158 8 317 0 255 -2 294 -17 321 -23 43 -71
81 -116 94 -47 13 -555 12 -602 -2z m591 -127 l24 -19 3 -269 c3 -261 2 -270
-18 -296 l-21 -27 -273 0 c-230 0 -275 2 -294 16 -22 15 -22 17 -22 293 0 284
2 301 40 314 8 3 133 6 276 6 243 1 263 0 285 -18z"/>
<path d="M2054 4355 c-25 -26 -26 -52 -2 -82 8 -10 225 -13 1023 -13 968 0
1013 1 1028 18 18 19 22 49 9 68 -22 33 -44 34 -1042 34 l-991 0 -25 -25z"/>
<path d="M2064 3622 c-6 -4 -17 -18 -24 -31 -10 -20 -9 -27 8 -50 l19 -26
1098 -3 c1210 -2 1145 -6 1145 58 0 64 68 60 -1140 60 -602 0 -1100 -4 -1106
-8z"/>
<path d="M915 2976 c-37 -17 -80 -62 -94 -99 -17 -45 -15 -599 3 -640 16 -39
61 -82 99 -96 18 -7 139 -11 323 -11 274 0 298 1 334 20 89 45 100 90 100 410
0 320 -11 365 -100 410 -37 19 -60 20 -337 20 -227 -1 -305 -4 -328 -14z m626
-123 c20 -24 20 -562 0 -586 -12 -15 -45 -17 -294 -17 -247 0 -283 2 -299 17
-17 15 -18 37 -18 291 0 242 2 278 17 294 15 17 38 18 298 18 251 0 284 -2
296 -17z"/>
<path d="M2052 2978 c-24 -31 -23 -57 2 -83 l25 -25 991 0 c998 0 1020 1 1042
34 13 20 8 53 -10 69 -17 16 -103 17 -1029 17 -796 0 -1013 -3 -1021 -12z"/>
<path d="M2054 2225 c-25 -26 -26 -52 -2 -82 8 -10 244 -13 1118 -13 1060 0
1108 1 1123 18 21 23 22 52 3 78 -14 19 -39 19 -1116 22 l-1101 2 -25 -25z"/>
<path d="M914 1591 c-47 -22 -80 -59 -95 -110 -6 -23 -9 -141 -7 -327 l3 -291
27 -40 c49 -74 66 -78 380 -81 298 -3 336 1 388 44 64 55 65 59 65 379 0 160
-3 302 -8 317 -10 38 -65 98 -104 114 -25 11 -101 14 -320 14 -259 0 -292 -2
-329 -19z m626 -128 c20 -26 21 -35 18 -296 l-3 -269 -24 -19 c-23 -19 -39
-20 -298 -17 -258 3 -275 4 -289 22 -11 16 -14 74 -14 297 0 276 0 278 22 293
19 14 64 16 294 16 l273 0 21 -27z"/>
<path d="M2058 1593 c-8 -10 -18 -24 -22 -30 -7 -13 10 -53 28 -65 6 -4 462
-8 1014 -8 989 0 1002 0 1022 20 11 11 20 29 20 40 0 11 -9 29 -20 40 -20 20
-33 20 -1023 20 -944 0 -1005 -1 -1019 -17z"/>
<path d="M2052 848 c-24 -31 -23 -57 2 -83 l25 -25 1101 2 c1077 3 1102 3
1116 22 19 27 18 60 -4 79 -17 16 -109 17 -1124 17 -872 0 -1108 -3 -1116 -12z"/>
</g>
</svg>
