<?xml version="1.0" standalone="no"?>
<!DOCTYPE svg PUBLIC "-//W3C//DTD SVG 20010904//EN"
 "http://www.w3.org/TR/2001/REC-SVG-20010904/DTD/svg10.dtd">
<svg version="1.0" xmlns="http://www.w3.org/2000/svg"
 width="512.000000pt" height="512.000000pt" viewBox="0 0 512.000000 512.000000"
 preserveAspectRatio="xMidYMid meet">

<g transform="translate(0.000000,512.000000) scale(0.100000,-0.100000)"
fill="#000000" stroke="none">
<path d="M1040 4862 c-420 -1 -768 -6 -772 -10 -11 -11 -11 -4573 0 -4584 11
-11 4573 -11 4584 0 11 11 11 4573 0 4584 -8 8 -2462 15 -3812 10z m720 -787
l0 -715 -715 0 -715 0 0 715 0 715 715 0 715 0 0 -715z m1510 0 l0 -715 -710
0 -710 0 0 715 0 715 710 0 710 0 0 -715z m1520 0 l0 -715 -715 0 -715 0 0
715 0 715 715 0 715 0 0 -715z m-3030 -1515 l0 -720 -712 2 -713 3 -3 705 c-1
388 0 711 3 718 3 9 156 12 715 12 l710 0 0 -720z m1510 0 l0 -720 -710 0
-710 0 0 720 0 720 710 0 710 0 0 -720z m1515 0 l0 -715 -712 -3 -713 -2 0
720 0 720 713 -2 712 -3 0 -715z m-3025 -1515 l0 -715 -715 0 -715 0 0 715 0
715 715 0 715 0 0 -715z m1510 0 l0 -715 -710 0 -710 0 0 715 0 715 710 0 710
0 0 -715z m1520 0 l0 -715 -715 0 -715 0 0 715 0 715 715 0 715 0 0 -715z"/>
</g>
</svg>
