<svg width="12" height="17" viewBox="0 0 12 17" fill="none" xmlns="http://www.w3.org/2000/svg">
<path d="M5.84375 0.53125C4.29389 0.53125 2.80751 1.14693 1.71159 2.24285C0.615679 3.33876 0 4.82514 0 6.375C0 9.46156 5.20625 15.9906 5.42938 16.2722C5.47915 16.3342 5.54223 16.3843 5.61395 16.4187C5.68567 16.4531 5.7642 16.471 5.84375 16.471C5.9233 16.471 6.00183 16.4531 6.07355 16.4187C6.14527 16.3843 6.20835 16.3342 6.25813 16.2722C6.48125 15.9906 11.6875 9.46156 11.6875 6.375C11.6875 4.82514 11.0718 3.33876 9.97591 2.24285C8.87999 1.14693 7.39361 0.53125 5.84375 0.53125ZM5.84375 7.96875C5.42346 7.96875 5.01262 7.84412 4.66316 7.61062C4.31371 7.37713 4.04134 7.04525 3.88051 6.65695C3.71967 6.26866 3.67759 5.84139 3.75958 5.42918C3.84157 5.01697 4.04396 4.63834 4.34115 4.34115C4.63833 4.04396 5.01697 3.84158 5.42918 3.75958C5.84139 3.67759 6.26866 3.71967 6.65695 3.88051C7.04525 4.04134 7.37712 4.31371 7.61062 4.66316C7.84412 5.01262 7.96875 5.42347 7.96875 5.84375C7.96875 6.40734 7.74487 6.94784 7.34635 7.34635C6.94784 7.74487 6.40734 7.96875 5.84375 7.96875Z" fill="#D01818"/>
</svg>
