<svg width="33" height="33" viewBox="0 0 33 33" fill="none" xmlns="http://www.w3.org/2000/svg">
<path d="M30.8229 3.44336H2.17713C0.976725 3.44336 0 4.42008 0 5.62049V27.3798C0 28.5803 0.976725 29.5569 2.17713 29.5569H30.8229C32.0233 29.5569 33 28.5803 33 27.3798V5.62049C33 4.42008 32.0234 3.44336 30.8229 3.44336ZM2.17713 5.30947H30.8229C30.9914 5.30947 31.1339 5.45192 31.1339 5.62049V20.1107L26.1441 13.707C25.7739 13.2319 25.232 12.9471 24.6572 12.926C24.0826 12.9044 23.5211 13.1488 23.1168 13.5955L16.6428 20.7505C16.4869 20.9226 16.141 20.9702 15.9443 20.8465L10.6212 17.4942C9.70902 16.9196 8.374 16.9788 7.51621 17.6317L1.86611 21.9317V5.62049C1.86611 5.45192 2.00856 5.30947 2.17713 5.30947ZM30.8229 27.6908H2.17713C2.00856 27.6908 1.86611 27.5483 1.86611 27.3798V24.2768L8.64646 19.1166C8.88196 18.9375 9.37673 18.9156 9.62691 19.0732L14.9501 22.4255C15.9122 23.0315 17.2636 22.8456 18.0265 22.0025L24.5006 14.8476C24.5394 14.8046 24.5672 14.7916 24.5887 14.7907C24.605 14.7913 24.6366 14.8082 24.6722 14.8539L31.1339 23.1467V27.3796C31.1339 27.5483 30.9914 27.6908 30.8229 27.6908Z" fill="#0074BA"/>
<path d="M13.7894 16.0768C15.6118 16.0768 17.0944 14.5943 17.0944 12.7718C17.0944 10.9494 15.6117 9.4668 13.7894 9.4668C11.9669 9.4668 10.4844 10.9495 10.4844 12.7718C10.4844 14.5941 11.9669 16.0768 13.7894 16.0768ZM13.7894 11.3328C14.5829 11.3328 15.2283 11.9782 15.2283 12.7717C15.2283 13.5652 14.5829 14.2106 13.7894 14.2106C12.9959 14.2106 12.3505 13.5652 12.3505 12.7717C12.3505 11.9783 12.9959 11.3328 13.7894 11.3328Z" fill="#0074BA"/>
</svg>
